<svg width="20" height="20" viewBox="0 0 20 20" fill="none" xmlns="http://www.w3.org/2000/svg">
<path d="M15.402 13.9725C14.263 14.246 13.0739 14.2328 11.9413 13.934C10.8086 13.6352 9.76778 13.0601 8.91192 12.2603C8.05605 11.4605 7.4119 10.4609 7.03714 9.3511C6.66238 8.24126 6.56872 7.0558 6.76455 5.90088C6.73476 5.92964 6.70332 5.95663 6.67038 5.98171C6.43705 6.15921 6.14538 6.22505 5.56205 6.35671L5.03288 6.47671C2.98288 6.94088 1.95788 7.17255 1.71371 7.95671C1.47038 8.74005 2.16871 9.55755 3.56621 11.1917L3.92788 11.6142C4.32455 12.0784 4.52371 12.3109 4.61288 12.5975C4.70204 12.885 4.67204 13.195 4.61205 13.8142L4.55704 14.3784C4.34621 16.5592 4.24038 17.6492 4.87871 18.1334C5.51705 18.6184 6.47704 18.1767 8.39538 17.2925L8.89288 17.0642C9.43788 16.8125 9.71038 16.6875 9.99955 16.6875C10.2887 16.6875 10.5612 16.8125 11.107 17.0642L11.6029 17.2925C13.522 18.1759 14.482 18.6175 15.1195 18.1342C15.7587 17.6492 15.6529 16.5592 15.442 14.3784L15.402 13.9725Z" fill="white"/>
<path opacity="0.5" d="M7.62823 4.5065L7.35489 4.9965C7.05489 5.53484 6.90489 5.804 6.67156 5.9815C6.70489 5.9565 6.73573 5.92984 6.76573 5.90067C6.56985 7.05568 6.66351 8.24123 7.03831 9.35116C7.4131 10.4611 8.05734 11.4607 8.91331 12.2605C9.76928 13.0604 10.8103 13.6354 11.943 13.9341C13.0758 14.2329 14.265 14.246 15.4041 13.9723L15.3874 13.814C15.3282 13.1948 15.2982 12.8848 15.3874 12.5973C15.4766 12.3107 15.6749 12.0782 16.0724 11.614L16.4341 11.1915C17.8316 9.55817 18.5299 8.74067 18.2857 7.9565C18.0424 7.17234 17.0174 6.93984 14.9674 6.4765L14.4374 6.3565C13.8549 6.22484 13.5632 6.159 13.3291 5.9815C13.0957 5.804 12.9457 5.53484 12.6457 4.9965L12.3732 4.5065C11.3174 2.61317 10.7899 1.6665 10.0007 1.6665C9.21156 1.6665 8.68406 2.61317 7.62823 4.5065Z" fill="white"/>
</svg>
