<svg width="100" height="25" viewBox="0 0 100 25" fill="none" xmlns="http://www.w3.org/2000/svg">
<g clip-path="url(#clip0_856_1446)">
<path fill-rule="evenodd" clip-rule="evenodd" d="M98.1674 8.50339C97.0825 8.55608 96.1273 8.6023 95.1358 8.65052C95.1358 10.3286 95.1358 11.9566 95.1358 13.6911C96.7733 13.997 98.3443 14.2908 100 14.6002C99.6682 15.8493 99.3531 17.036 99.0117 18.3211C97.7759 17.8566 96.6014 17.415 95.4062 16.9659C95.4062 18.6161 95.4062 20.1813 95.4062 21.7962C94.3897 21.7962 93.3739 21.7962 92.1633 21.7962C92.1633 20.1908 92.1787 18.6206 92.1588 17.0507C92.1386 15.4628 92.1228 15.4631 90.3495 15.1109C90.1839 16.1423 90.0187 17.1729 89.8338 18.3251C88.8879 18.05 87.9884 17.788 86.9868 17.4965C87.7818 14.9059 88.5503 12.4022 89.3338 9.84841C89.9194 9.91924 90.4321 9.98137 91.0365 10.0544C90.9184 11.008 90.8067 11.9151 90.6884 12.8734C91.1532 12.9711 91.5704 13.0588 92.0687 13.1635C92.0687 11.6512 92.0687 10.1906 92.0687 8.62119C91.0327 8.62119 90.0202 8.62119 88.95 8.62119C88.95 7.6589 88.95 6.80348 88.95 5.88146C89.965 5.88146 90.9753 5.88146 92.0602 5.88146C92.0602 5.03896 92.0602 4.24219 92.0602 3.37036C92.9862 3.37036 93.8403 3.37036 94.8428 3.37036C94.8817 4.21485 94.9224 5.09438 94.9668 6.05095C96.0315 6.12575 97.075 6.19932 98.1671 6.27611C98.1674 7.01498 98.1674 7.71408 98.1674 8.50339Z" fill="#9B7B6C"/>
<path fill-rule="evenodd" clip-rule="evenodd" d="M37.8359 24.1611C37.0734 23.8208 36.4259 23.5318 35.7101 23.2122C36.0916 22.3091 36.4466 21.4683 36.8329 20.5537C35.237 20.1126 33.7449 19.7 32.1395 19.2564C32.2702 17.9442 32.4015 16.6278 32.549 15.1481C30.9965 15.2283 29.4664 15.3081 27.866 15.3911C27.8166 14.7954 27.771 14.2467 27.7153 13.5766C29.4185 13.4429 31.0763 13.3125 32.8077 13.1768C33.0475 11.4945 33.2823 9.84877 33.5263 8.13843C34.729 8.23237 35.8683 8.32134 37.1341 8.42001C36.783 9.94744 36.4484 11.4033 36.0876 12.9727C37.4811 12.88 38.7494 12.8174 40.0112 12.6897C40.2161 12.6688 40.4307 12.3872 40.5709 12.1789C40.7553 11.9056 40.8701 11.5857 41.0809 11.1488C42.684 12.3012 44.3892 12.7848 46.3816 12.1737C46.4215 12.9399 46.4525 13.5381 46.4869 14.2037C45.2139 14.2931 44.0357 14.3389 42.8697 14.4825C42.552 14.5215 42.1413 14.788 41.9959 15.0658C41.4517 16.1059 40.9998 17.1937 40.4826 18.3317C41.6518 18.5534 42.7387 18.7596 43.9286 18.9855C43.6539 20.1283 43.3979 21.1947 43.1252 22.3284C41.7918 21.9601 40.5414 21.6144 39.1978 21.2431C38.7537 22.1942 38.3133 23.1381 37.8359 24.1611ZM39.475 14.6575C38.733 14.7124 38.1785 14.7489 37.6249 14.7949C35.5409 14.9681 35.5404 14.9691 35.0793 17.0654C35.0673 17.1191 35.0983 17.1822 35.1255 17.3276C35.9371 17.4872 36.7768 17.6815 37.6269 17.7963C37.8162 17.8222 38.1458 17.6182 38.2364 17.4347C38.6581 16.5813 39.0187 15.6981 39.475 14.6575Z" fill="#9B7B6C"/>
<path fill-rule="evenodd" clip-rule="evenodd" d="M81.1346 12.6812C80.6874 14.1172 80.2363 15.5527 79.7952 16.9906C79.641 17.4926 79.51 18.0016 79.338 18.618C78.5206 18.2454 77.7494 17.894 76.8828 17.4991C78.1127 14.5044 79.3198 11.5646 80.5744 8.50873C79.5848 8.589 78.7083 8.66008 77.7776 8.73588C77.7776 7.89686 77.7776 7.16198 77.7776 6.27524C79.4631 6.27524 81.1593 6.27524 82.9777 6.27524C82.9777 5.52817 82.9777 4.92873 82.9777 4.26318C84.0132 4.26318 84.9282 4.26318 85.938 4.26318C85.938 4.83877 85.938 5.41211 85.938 6.05902C86.6042 6.05902 87.1806 6.05902 87.9735 6.05902C87.8745 6.66468 87.9633 7.37546 87.6644 7.62448C87.2994 7.92867 86.6089 7.84517 86.0161 7.93588C86.0161 9.54632 86.0161 11.115 86.0161 12.7496C86.4742 12.8085 86.9241 12.8664 87.4875 12.9387C87.4059 13.647 87.3301 14.3056 87.2482 15.0163C86.8081 14.9632 86.4475 14.9194 85.9847 14.8635C85.9847 16.9956 85.9847 19.0872 85.9847 21.229C85.0308 21.229 84.1747 21.229 83.2021 21.229C83.2021 18.9532 83.2021 16.7309 83.2021 14.4641C82.4024 14.3173 81.7067 14.1895 80.9644 14.0533C81.0155 13.5585 81.063 13.1059 81.1081 12.6516C81.7441 12.6154 82.3816 12.5803 83.0264 12.545C83.0264 11.1262 83.0264 9.72277 83.0264 8.05244C82.5995 8.32482 82.1915 8.43691 82.1324 8.64666C81.7571 9.9795 81.4584 11.3337 81.1346 12.6812Z" fill="#9B7B6C"/>
<path fill-rule="evenodd" clip-rule="evenodd" d="M47.4584 4.75999C46.3556 6.30258 45.3278 7.74005 44.3011 9.17627C44.1683 9.15018 44.074 9.14894 43.9957 9.11315C42.7623 8.55372 42.7645 8.55347 43.172 7.30836C43.3359 6.80783 43.4919 6.30482 43.6456 5.80106C43.6623 5.74614 43.6398 5.67928 43.6231 5.43846C39.3018 5.67655 34.9779 5.91488 30.5859 6.15695C30.8177 7.88643 31.0393 9.53962 31.2768 11.3123C30.1188 11.4513 28.991 11.5865 27.7327 11.7373C27.3627 9.10569 27.0016 6.54117 26.6201 3.82752C27.7903 3.64759 28.9349 3.47164 30.1191 3.28947C30.2102 3.60733 30.285 3.86803 30.3928 4.2443C32.1065 4.14241 33.8279 4.03976 35.8115 3.92147C34.8362 3.08145 34.0492 2.40373 33.1806 1.65517C34.2887 1.10146 35.3387 0.576573 36.4922 0.000244141C37.0651 1.05747 37.643 2.07393 38.1687 3.11674C38.41 3.59565 38.6827 3.78503 39.2541 3.72811C41.0144 3.55241 42.7808 3.42914 44.5476 3.33843C44.852 3.32277 45.1816 3.54321 45.479 3.69481C46.1123 4.01765 46.7323 4.36707 47.4584 4.75999Z" fill="#9B7B6C"/>
<path fill-rule="evenodd" clip-rule="evenodd" d="M69.1192 18.1696C70.511 18.2466 71.8352 18.3199 73.1339 18.392C73.1339 19.5205 73.1339 20.5884 73.1339 21.7878C71.7289 21.3937 70.4583 21.0373 69.0927 20.6541C69.0927 21.5808 69.0927 22.4367 69.0927 23.3597C68.3799 23.3597 67.7483 23.3597 67.0445 23.3597C67.0035 22.5205 66.9005 21.6894 66.9419 20.866C66.9776 20.158 66.6969 19.8565 66.0414 19.7412C65.591 19.6617 65.1544 19.5051 64.6476 19.3652C64.4113 20.2994 64.185 21.1921 63.9308 22.1974C63.0707 21.9168 62.2597 21.6521 61.3428 21.3532C62.1367 19.5046 62.8998 17.7277 63.6937 15.8801C63.0994 15.8801 62.5901 15.8801 62.0419 15.8801C62.0419 14.9484 62.0419 14.0649 62.0419 13.1645C63.5979 13.1645 65.1077 13.1645 66.6889 13.1645C66.6889 12.5422 66.6889 11.9072 66.6889 11.2153C67.5073 11.2153 68.2546 11.2153 69.071 11.2153C69.071 11.9462 69.071 12.5882 69.071 13.3293C69.8957 13.3666 70.6579 13.4011 71.5333 13.4409C71.4686 14.1089 71.411 14.7078 71.3464 15.3746C70.6026 15.4562 69.8782 15.5354 69.1194 15.6187C69.1192 16.4716 69.1192 17.2696 69.1192 18.1696ZM66.8129 15.7111C65.2587 15.6893 65.2 15.7671 65.0274 17.9973C65.6088 17.9973 66.1864 17.9973 66.8129 17.9973C66.8129 17.2341 66.8129 16.5029 66.8129 15.7111Z" fill="#9B7B6C"/>
<path fill-rule="evenodd" clip-rule="evenodd" d="M62.9154 3.52827C64.2693 3.41693 65.5036 3.31553 66.8418 3.20518C66.9014 3.78499 66.9568 4.3218 67.0252 4.9881C65.6466 5.12752 64.3321 5.26023 62.9708 5.39792C63.016 5.75604 63.0539 6.05725 63.0988 6.4119C65.4345 6.71982 67.7405 7.02377 70.1733 7.34436C69.8794 8.33001 69.6109 9.23066 69.32 10.2061C67.2557 9.48789 65.2726 8.79798 63.1884 8.07304C63.2428 9.16679 63.2912 10.1455 63.3453 11.236C62.5109 11.2758 61.7507 11.3126 60.9055 11.3528C60.7646 9.40339 60.6291 7.52877 60.4898 5.60519C59.8703 5.66185 59.3318 5.71081 58.6602 5.77219C58.9556 6.09329 59.1567 6.31224 59.4184 6.5968C58.0092 8.2475 56.6026 9.89472 55.1342 11.6145C54.6479 11.2303 54.1983 10.8749 53.708 10.4877C55.0145 8.97593 56.269 7.52479 57.6254 5.95536C56.7209 5.95536 55.9714 5.95536 55.1235 5.95536C55.0981 5.43296 55.0721 4.89068 55.0422 4.26688C56.8207 4.09689 58.5414 3.93212 60.2952 3.76436C60.2952 2.92684 60.2952 2.1584 60.2952 1.28409C61.063 1.22767 61.8253 1.172 62.6838 1.10938C62.7587 1.89248 62.8311 2.64998 62.9154 3.52827Z" fill="#9B7B6C"/>
<path fill-rule="evenodd" clip-rule="evenodd" d="M61.4894 14.3658C61.7404 15.7702 61.7404 15.7702 59.6802 16.0408C59.6802 16.7906 59.6802 17.5491 59.6802 18.3839C60.2583 18.3839 60.804 18.3839 61.4877 18.3839C61.3509 19.2177 61.2302 19.9569 61.1054 20.7178C60.5892 20.7178 60.1625 20.7178 59.6637 20.7178C59.6343 21.3252 59.6063 21.9023 59.5759 22.5288C58.9546 22.5288 58.3807 22.5288 57.726 22.5288C57.726 21.8894 57.726 21.3101 57.726 20.6485C56.8848 20.5506 56.1106 20.4606 55.2957 20.3657C55.111 21.0382 54.9074 21.7783 54.6749 22.6243C53.9034 22.3531 53.188 22.1016 52.3332 21.8009C53.1463 19.9486 53.9353 18.1518 54.7615 16.2702C53.8747 16.2702 53.0915 16.2702 52.2573 16.2702C52.2573 15.4807 52.2573 14.717 52.2573 13.8213C54.0112 13.8983 55.758 13.9751 57.5875 14.0556C57.5875 13.3933 57.5875 12.7872 57.5875 12.1199C58.2712 12.1199 58.875 12.1199 59.5512 12.1199C59.5986 12.7469 59.4324 13.5484 59.7598 13.9639C60.0437 14.3243 60.8868 14.2477 61.4894 14.3658ZM57.5638 18.4679C57.5638 17.623 57.5638 16.8843 57.5638 16.1487C56.2386 16.1196 55.9155 16.6028 55.8983 18.5569C56.4499 18.5276 56.9959 18.4983 57.5638 18.4679Z" fill="#9B7B6C"/>
<path fill-rule="evenodd" clip-rule="evenodd" d="M21.5159 4.3941C21.1373 6.33955 20.8205 7.96888 20.4896 9.66953C19.8898 9.55844 19.3803 9.464 18.7492 9.34744C18.9608 8.32526 19.1632 7.34756 19.3867 6.26648C16.4078 6.40913 13.5271 6.54707 10.5382 6.69022C10.6397 7.90426 10.7365 9.0604 10.8398 10.2966C10.0716 10.3873 9.34348 10.4733 8.52107 10.5704C8.303 8.35956 8.09141 6.21355 7.87158 3.98403C8.66454 3.90401 9.36793 3.83268 10.1804 3.75042C10.2487 4.14135 10.3101 4.49226 10.3937 4.97241C11.5604 4.9068 12.7509 4.8402 14.1472 4.76142C13.3342 3.85331 12.6261 3.06225 11.8267 2.16881C12.802 1.80049 13.6858 1.46623 14.6632 1.09717C15.2348 2.28412 15.7775 3.41118 16.3728 4.64734C17.9338 4.57055 19.6305 4.48705 21.5159 4.3941Z" fill="#9B7B6C"/>
<path fill-rule="evenodd" clip-rule="evenodd" d="M11.9657 15.0082C11.0368 15.0715 10.3292 15.1198 9.51226 15.1754C9.46585 14.6418 9.42243 14.1408 9.37153 13.5523C12.9488 13.22 16.4333 12.897 20.0039 12.5657C20.0039 13.1743 20.0039 13.685 20.0039 14.3168C18.5677 14.4353 17.0945 14.5882 15.6174 14.6637C14.9797 14.6963 14.6273 14.9127 14.3489 15.5075C13.1425 18.0834 11.8784 20.633 10.6061 23.2515C9.89552 22.877 9.24802 22.5357 8.52393 22.1543C9.66895 19.7764 10.7781 17.474 11.9657 15.0082Z" fill="#9B7B6C"/>
<path fill-rule="evenodd" clip-rule="evenodd" d="M15.729 15.8474C16.765 15.8474 17.6533 15.8474 18.6448 15.8474C18.4193 17.4042 18.2074 18.8665 17.9734 20.4814C19.4293 20.252 20.7922 20.037 22.2968 19.7999C22.4634 20.6827 22.6264 21.5438 22.8302 22.6219C20.5389 22.6219 18.3532 22.6219 16.007 22.6219C15.9196 20.4973 15.8253 18.1972 15.729 15.8474Z" fill="#9B7B6C"/>
<path fill-rule="evenodd" clip-rule="evenodd" d="M5.39051 15.1682C5.93795 15.4741 6.41827 15.7428 6.95647 16.0435C5.58239 18.2648 4.23675 20.4399 2.83447 22.7065C2.36762 22.4164 1.93771 22.149 1.40674 21.8192C2.7424 19.5897 4.05136 17.4039 5.39051 15.1682Z" fill="#9B7B6C"/>
<path fill-rule="evenodd" clip-rule="evenodd" d="M1.48486 4.63629C2.28406 3.78633 2.98171 3.04474 3.73974 2.23877C4.63326 3.2366 5.49583 4.19988 6.41904 5.23101C6.184 5.43803 5.77354 5.84312 5.31294 6.18062C5.15973 6.2927 4.83686 6.31756 4.6622 6.2348C3.6307 5.74595 2.61991 5.21336 1.48486 4.63629Z" fill="#9B7B6C"/>
<path fill-rule="evenodd" clip-rule="evenodd" d="M3.85951 13.0885C2.51487 12.5385 1.3127 12.0469 0 11.5098C0.472583 10.6929 0.910234 9.93667 1.37932 9.12573C2.59896 9.84422 3.73975 10.5165 4.91746 11.2101C4.55417 11.855 4.22331 12.4425 3.85951 13.0885Z" fill="#9B7B6C"/>
<path fill-rule="evenodd" clip-rule="evenodd" d="M11.7485 10.7216C11.7485 10.1575 11.7485 9.67362 11.7485 9.13208C13.6449 9.13208 15.4985 9.13208 17.417 9.13208C17.417 9.64454 17.417 10.1515 17.417 10.7216C15.5532 10.7216 13.6978 10.7216 11.7485 10.7216Z" fill="#9B7B6C"/>
</g>
<defs>
<clipPath id="clip0_856_1446">
<rect width="100" height="24.1611" fill="white"/>
</clipPath>
</defs>
</svg>
