<svg width="62" height="62" viewBox="0 0 62 62" fill="none" xmlns="http://www.w3.org/2000/svg">
<path fill-rule="evenodd" clip-rule="evenodd" d="M45.126 39.5715L46.4775 36.2666C47.1968 34.5009 47.6731 33.3373 47.7897 32.5491C47.3659 32.4216 46.974 32.2054 46.6402 31.9148C46.3064 31.6242 46.0383 31.2659 45.8537 30.8637C45.0831 31.0774 43.9851 31.6823 42.3332 32.5916C41.0578 33.2929 40.4214 33.6429 39.847 33.5597C39.5286 33.5138 39.2293 33.3802 38.9825 33.1739C38.5387 32.8031 38.3738 32.0965 38.0466 30.6818L36.3149 23.225C36.1129 22.3538 35.9443 21.6222 35.7734 21.0266C35.1278 21.1509 34.462 21.1202 33.8305 20.9371C33.1759 20.7484 32.6044 20.4145 32.1381 19.9787C31.6758 20.394 31.1443 20.9216 30.5076 21.5512L25.0747 26.9428C24.0426 27.9657 23.5269 28.4762 22.9538 28.5538C22.6351 28.5971 22.3106 28.5509 22.0167 28.4203C21.4881 28.1856 21.1356 27.5506 20.4291 26.2781C19.5147 24.629 18.9071 23.5324 18.3705 22.942C17.9998 23.1844 17.5817 23.3451 17.1441 23.4133C16.7064 23.4816 16.2593 23.4559 15.8324 23.3378C15.5122 24.0651 15.2955 25.3057 14.9646 27.1833L14.3497 30.7006L14.0375 32.4536C13.1369 37.4734 12.3906 41.6271 13.6537 43.639C15.0587 45.8804 17.8973 46.6986 23.5745 48.335L27.9305 49.5905C33.6077 51.2269 36.4463 52.0451 38.8287 50.8954C40.9688 49.8645 42.5479 45.9508 44.4573 41.2217C44.6758 40.6819 44.8957 40.1296 45.126 39.5715Z" fill="#FFE897"/>
<path d="M47.8257 32.5596C48.6218 32.7839 49.4745 32.6834 50.1967 32.2801C50.9189 31.8769 51.4518 31.2037 51.6785 30.4082C51.9052 29.6127 51.8073 28.7598 51.4061 28.0363C51.005 27.3129 50.3335 26.778 49.5386 26.5489C48.7438 26.3198 47.8906 26.4152 47.166 26.8142C46.4414 27.2131 45.9045 27.8831 45.673 28.6772C45.4415 29.4713 45.5343 30.3248 45.9311 31.0506C46.3279 31.7764 46.9962 32.3153 47.7896 32.5492L47.8257 32.5596ZM36.1385 12.9298C35.0767 12.6237 33.9368 12.752 32.9695 13.2864C32.0023 13.8208 31.2869 14.7176 30.9808 15.7794C30.6748 16.8413 30.8031 17.9812 31.3375 18.9485C31.8719 19.9157 32.7687 20.6311 33.8305 20.9371C34.8923 21.2432 36.0323 21.1149 36.9995 20.5805C37.9668 20.0461 38.6821 19.1493 38.9882 18.0875C39.2943 17.0256 39.166 15.8857 38.6315 14.9184C38.0971 13.9512 37.2004 13.2359 36.1385 12.9298ZM13.6591 19.4593C13.4295 20.2556 13.5257 21.1106 13.9265 21.836C14.3274 22.5615 14.9999 23.098 15.7963 23.3275L15.8323 23.3379C16.6252 23.5579 17.4729 23.4556 18.1907 23.0533C18.9085 22.651 19.4383 21.9814 19.6646 21.1903C19.8941 20.3939 19.7979 19.5389 19.3971 18.8135C18.9963 18.0881 18.3237 17.5516 17.5273 17.322C16.7309 17.0925 15.876 17.1887 15.1506 17.5895C14.4251 17.9903 13.8886 18.6629 13.6591 19.4593ZM13.0241 39.3316C13.1036 38.2785 13.228 37.2294 13.3971 36.1869L43.0123 44.7231C42.5577 45.7737 42.1102 46.7397 41.6543 47.5839L13.0241 39.3316Z" fill="#C84A2F"/>
</svg>
