<svg width="39" height="36" viewBox="0 0 39 36" fill="none" xmlns="http://www.w3.org/2000/svg">
<path d="M34.8257 20.5596C35.6219 20.7839 36.4745 20.6834 37.1967 20.2801C37.9189 19.8769 38.4518 19.2037 38.6785 18.4082C38.9052 17.6127 38.8073 16.7598 38.4061 16.0363C38.005 15.3129 37.3335 14.778 36.5386 14.5489C35.7438 14.3198 34.8906 14.4152 34.166 14.8142C33.4414 15.2131 32.9045 15.8831 32.673 16.6772C32.4415 17.4713 32.5343 18.3248 32.9311 19.0506C33.3279 19.7764 33.9962 20.3153 34.7896 20.5492L34.8257 20.5596ZM23.1385 0.929789C22.0767 0.623727 20.9368 0.752014 19.9695 1.28643C19.0022 1.82084 18.2869 2.71761 17.9808 3.77945C17.6748 4.84129 17.8031 5.98122 18.3375 6.94847C18.8719 7.91573 19.7687 8.63107 20.8305 8.93713C21.8923 9.24319 23.0323 9.1149 23.9995 8.58049C24.9668 8.04607 25.6821 7.14931 25.9882 6.08747C26.2943 5.02563 26.166 3.8857 25.6315 2.91844C25.0971 1.95119 24.2004 1.23585 23.1385 0.929789ZM0.659064 7.45925C0.429517 8.25563 0.525733 9.11058 0.926544 9.83602C1.32736 10.5615 1.99993 11.098 2.79631 11.3275L2.83234 11.3379C3.62524 11.5579 4.47293 11.4556 5.19074 11.0533C5.90855 10.651 6.4383 9.98139 6.66457 9.19027C6.89412 8.39389 6.7979 7.53894 6.39709 6.8135C5.99628 6.08806 5.3237 5.55155 4.52732 5.32201C3.73094 5.09246 2.876 5.18867 2.15056 5.58949C1.42512 5.9903 0.888611 6.66287 0.659064 7.45925ZM0.0240787 27.3316C0.103571 26.2785 0.228037 25.2294 0.397135 24.1869L30.0123 32.7231C29.5577 33.7737 29.1102 34.7397 28.6543 35.5839L0.0240787 27.3316Z" fill="#C84A2F"/>
</svg>
