<svg width="16" height="14" viewBox="0 0 16 14" fill="none" xmlns="http://www.w3.org/2000/svg">
<path fill-rule="evenodd" clip-rule="evenodd" d="M6.47446 0.756048C6.88547 0.0367721 7.80175 -0.213123 8.52103 0.197892C8.75358 0.330776 8.9463 0.523501 9.07919 0.756048L15.356 11.7405C15.767 12.4598 15.5171 13.376 14.7978 13.7871C14.5712 13.9166 14.3147 13.9847 14.0536 13.9847H1.5C0.671573 13.9847 0 13.3131 0 12.4847C0 12.2759 0.0435987 12.0699 0.127348 11.8799L0.197635 11.7405L6.47446 0.756048ZM1.02961 12.3152C1.01009 12.3693 1 12.4267 1 12.4847C1 12.7608 1.22386 12.9847 1.5 12.9847H14.0536C14.1407 12.9847 14.2262 12.962 14.3017 12.9188C14.5415 12.7818 14.6248 12.4764 14.4878 12.2366L8.21094 1.25219C8.16665 1.17467 8.10241 1.11043 8.02489 1.06614C7.78513 0.92913 7.4797 1.01243 7.3427 1.25219L1.06588 12.2366L1.02961 12.3152ZM6.88468 5.22293C6.86409 4.82148 7.18405 4.48469 7.58603 4.48469C7.9886 4.48469 8.30878 4.82243 8.2873 5.22443L8.07682 9.16469H7.08682L6.88468 5.22293ZM7.58682 11.5547C7.35349 11.5547 7.16015 11.4797 7.00682 11.3297C6.85349 11.1797 6.77682 10.9947 6.77682 10.7747C6.77682 10.5547 6.85349 10.3714 7.00682 10.2247C7.16015 10.078 7.35349 10.0047 7.58682 10.0047C7.81349 10.0047 8.00182 10.078 8.15182 10.2247C8.30182 10.3714 8.37682 10.5547 8.37682 10.7747C8.37682 10.9947 8.30182 11.1797 8.15182 11.3297C8.00182 11.4797 7.81349 11.5547 7.58682 11.5547Z" fill="#C84A2F"/>
</svg>
