<svg width="40" height="40" viewBox="0 0 40 40" fill="none" xmlns="http://www.w3.org/2000/svg">
<rect x="40" y="40" width="40" height="40" rx="20" transform="rotate(-180 40 40)" fill="#9B7B6C"/>
<path d="M19.7732 14.6665L19.7732 13.4594L18.9196 14.3129L15.5092 17.7233L15.8628 18.0769L15.5092 17.7233C15.4207 17.8119 15.2771 17.8119 15.1886 17.7233C15.1001 17.6348 15.1001 17.4912 15.1886 17.4027L19.8395 12.7517C19.9281 12.6632 20.0716 12.6632 20.1602 12.7517L20.5137 12.3982L20.1602 12.7517L24.811 17.4024C24.8555 17.447 24.8776 17.5043 24.8776 17.5629C24.8776 17.6216 24.8555 17.6788 24.8112 17.7232C24.7226 17.8118 24.5791 17.8118 24.4905 17.7232L24.4905 17.7232L21.0801 14.3129L20.2266 13.4594L20.2266 14.6665L20.2266 27.0877C20.2266 27.2129 20.125 27.3145 19.9999 27.3145C19.8747 27.3145 19.7732 27.2129 19.7732 27.0877L19.7732 14.6665Z" fill="#0C0B0B" stroke="white"/>
</svg>
