<svg width="40" height="40" viewBox="0 0 40 40" fill="none" xmlns="http://www.w3.org/2000/svg">
<rect width="40" height="40" rx="20" fill="#B69B85"/>
<path d="M20.514 27.6018L25.165 22.9509C25.4487 22.6671 25.4487 22.2069 25.165 21.9231C24.8812 21.6393 24.4211 21.6393 24.1372 21.9231L20.7268 25.3335L20.7268 12.9123C20.7268 12.5109 20.4015 12.1855 20.0001 12.1855C19.5989 12.1855 19.2734 12.5109 19.2734 12.9123L19.2734 25.3335L15.863 21.9232C15.5792 21.6394 15.1191 21.6394 14.8353 21.9232C14.6935 22.0651 14.6224 22.2511 14.6224 22.4371C14.6224 22.6231 14.6935 22.8091 14.8353 22.951L19.4863 27.6018C19.7701 27.8857 20.2302 27.8857 20.514 27.6018Z" fill="white"/>
</svg>
