<svg width="20" height="20" viewBox="0 0 20 20" fill="none" xmlns="http://www.w3.org/2000/svg">
<path d="M3.75 18.125C3.25272 18.125 2.77581 17.9275 2.42417 17.5758C2.07254 17.2242 1.875 16.7473 1.875 16.25V3.75C1.875 3.25272 2.07254 2.77581 2.42417 2.42417C2.77581 2.07254 3.25272 1.875 3.75 1.875H13.75C13.9158 1.875 14.0747 1.94085 14.1919 2.05806C14.3092 2.17527 14.375 2.33424 14.375 2.5C14.375 2.66576 14.3092 2.82473 14.1919 2.94194C14.0747 3.05915 13.9158 3.125 13.75 3.125H3.75C3.58424 3.125 3.42527 3.19085 3.30806 3.30806C3.19085 3.42527 3.125 3.58424 3.125 3.75V16.25C3.125 16.4158 3.19085 16.5747 3.30806 16.6919C3.42527 16.8092 3.58424 16.875 3.75 16.875H16.25C16.4158 16.875 16.5747 16.8092 16.6919 16.6919C16.8092 16.5747 16.875 16.4158 16.875 16.25V10C16.875 9.83424 16.9408 9.67527 17.0581 9.55806C17.1753 9.44085 17.3342 9.375 17.5 9.375C17.6658 9.375 17.8247 9.44085 17.9419 9.55806C18.0592 9.67527 18.125 9.83424 18.125 10V16.25C18.125 16.7473 17.9275 17.2242 17.5758 17.5758C17.2242 17.9275 16.7473 18.125 16.25 18.125H3.75Z" fill="#9B7B6C"/>
<path d="M10.4425 12.9423L19.1925 4.19231C19.2506 4.1342 19.2967 4.06522 19.3281 3.98929C19.3596 3.91337 19.3758 3.83199 19.3758 3.74981C19.3758 3.66763 19.3596 3.58626 19.3281 3.51033C19.2967 3.43441 19.2506 3.36542 19.1925 3.30731C19.1344 3.2492 19.0654 3.20311 18.9895 3.17166C18.9135 3.14021 18.8322 3.12402 18.75 3.12402C18.6678 3.12402 18.5864 3.14021 18.5105 3.17166C18.4346 3.20311 18.3656 3.2492 18.3075 3.30731L10 11.6161L6.6925 8.30731C6.63439 8.2492 6.5654 8.20311 6.48948 8.17166C6.41355 8.14021 6.33218 8.12402 6.25 8.12402C6.16782 8.12402 6.08644 8.14021 6.01052 8.17166C5.93459 8.20311 5.86561 8.2492 5.8075 8.30731C5.74939 8.36542 5.70329 8.43441 5.67184 8.51033C5.64039 8.58626 5.62421 8.66763 5.62421 8.74981C5.62421 8.83199 5.64039 8.91337 5.67184 8.98929C5.70329 9.06522 5.74939 9.1342 5.8075 9.19231L9.5575 12.9423C9.61555 13.0005 9.68452 13.0467 9.76045 13.0782C9.83639 13.1097 9.91779 13.1259 10 13.1259C10.0822 13.1259 10.1636 13.1097 10.2395 13.0782C10.3155 13.0467 10.3844 13.0005 10.4425 12.9423Z" fill="#9B7B6C"/>
</svg>
