<svg width="24" height="24" viewBox="0 0 24 24" fill="none" xmlns="http://www.w3.org/2000/svg">
<path d="M21.5 23.25L13.625 15.375C13 15.875 12.2812 16.2708 11.4688 16.5625C10.6562 16.8542 9.79167 17 8.875 17C6.60417 17 4.6825 16.2133 3.11 14.64C1.5375 13.0667 0.750833 11.145 0.75 8.875C0.75 6.60417 1.53667 4.6825 3.11 3.11C4.68333 1.5375 6.605 0.750833 8.875 0.75C11.1458 0.75 13.0679 1.53667 14.6412 3.11C16.2146 4.68333 17.0008 6.605 17 8.875C17 9.79167 16.8542 10.6562 16.5625 11.4688C16.2708 12.2812 15.875 13 15.375 13.625L23.25 21.5L21.5 23.25ZM8.875 14.5C10.4375 14.5 11.7658 13.9533 12.86 12.86C13.9542 11.7667 14.5008 10.4383 14.5 8.875C14.5 7.3125 13.9533 5.98458 12.86 4.89125C11.7667 3.79792 10.4383 3.25083 8.875 3.25C7.3125 3.25 5.98458 3.79708 4.89125 4.89125C3.79792 5.98542 3.25083 7.31333 3.25 8.875C3.25 10.4375 3.79708 11.7658 4.89125 12.86C5.98542 13.9542 7.31333 14.5008 8.875 14.5Z" fill="black"/>
</svg>
