<svg width="20" height="20" viewBox="0 0 20 20" fill="none" xmlns="http://www.w3.org/2000/svg">
<path fill-rule="evenodd" clip-rule="evenodd" d="M3.33342 8.3335C3.03873 8.3335 2.75611 8.45056 2.54773 8.65894C2.33935 8.86731 2.22229 9.14993 2.22229 9.44462V10.5557C2.22229 10.8504 2.33935 11.1331 2.54773 11.3414C2.75611 11.5498 3.03873 11.6669 3.33342 11.6669H4.44454C4.73923 11.6669 5.02185 11.5498 5.23023 11.3414C5.4386 11.1331 5.55567 10.8504 5.55567 10.5557V9.44462C5.55567 9.14993 5.4386 8.86731 5.23023 8.65894C5.02185 8.45056 4.73923 8.3335 4.44454 8.3335H3.33342ZM3.33342 9.44462V10.5557H4.44454V9.44462H3.33342ZM6.66679 9.44462C6.66679 9.14993 6.78386 8.86731 6.99223 8.65894C7.20061 8.45056 7.48323 8.3335 7.77792 8.3335H8.88904C9.18373 8.3335 9.46635 8.45056 9.67473 8.65894C9.8831 8.86731 10.0002 9.14993 10.0002 9.44462V10.5557C10.0002 10.8504 9.8831 11.1331 9.67473 11.3414C9.46635 11.5498 9.18373 11.6669 8.88904 11.6669H7.77792C7.48323 11.6669 7.20061 11.5498 6.99223 11.3414C6.78386 11.1331 6.66679 10.8504 6.66679 10.5557V9.44462ZM7.77792 9.44462H8.88904V10.5557H7.77792V9.44462ZM12.2224 8.3335C11.9277 8.3335 11.6451 8.45056 11.4367 8.65894C11.2284 8.86731 11.1113 9.14993 11.1113 9.44462V10.5557C11.1113 10.8504 11.2284 11.1331 11.4367 11.3414C11.6451 11.5498 11.9277 11.6669 12.2224 11.6669H13.3335C13.6282 11.6669 13.9109 11.5498 14.1192 11.3414C14.3276 11.1331 14.4447 10.8504 14.4447 10.5557V9.44462C14.4447 9.14993 14.3276 8.86731 14.1192 8.65894C13.9109 8.45056 13.6282 8.3335 13.3335 8.3335H12.2224ZM12.2224 9.44462V10.5557H13.3335V9.44462H12.2224ZM2.22229 13.8891C2.22229 13.5944 2.33935 13.3118 2.54773 13.1034C2.75611 12.8951 3.03873 12.778 3.33342 12.778H4.44454C4.73923 12.778 5.02185 12.8951 5.23023 13.1034C5.4386 13.3118 5.55567 13.5944 5.55567 13.8891V15.0002C5.55567 15.2949 5.4386 15.5776 5.23023 15.7859C5.02185 15.9943 4.73923 16.1114 4.44454 16.1114H3.33342C3.03873 16.1114 2.75611 15.9943 2.54773 15.7859C2.33935 15.5776 2.22229 15.2949 2.22229 15.0002V13.8891ZM4.44454 13.8891V15.0002H3.33342V13.8891H4.44454ZM7.77792 12.778C7.48323 12.778 7.20061 12.8951 6.99223 13.1034C6.78386 13.3118 6.66679 13.5944 6.66679 13.8891V15.0002C6.66679 15.2949 6.78386 15.5776 6.99223 15.7859C7.20061 15.9943 7.48323 16.1114 7.77792 16.1114H8.88904C9.18373 16.1114 9.46635 15.9943 9.67473 15.7859C9.8831 15.5776 10.0002 15.2949 10.0002 15.0002V13.8891C10.0002 13.5944 9.8831 13.3118 9.67473 13.1034C9.46635 12.8951 9.18373 12.778 8.88904 12.778H7.77792ZM8.88904 13.8891H7.77792V15.0002H8.88904V13.8891Z" fill="white"/>
<path d="M16.6669 14.7223C16.6669 14.575 16.6084 14.4337 16.5042 14.3295C16.4 14.2253 16.2587 14.1667 16.1113 14.1667C15.964 14.1667 15.8227 14.2253 15.7185 14.3295C15.6143 14.4337 15.5558 14.575 15.5558 14.7223V16.3412L16.2741 17.0596C16.3789 17.1608 16.5192 17.2168 16.6649 17.2155C16.8106 17.2142 16.9499 17.1558 17.0529 17.0528C17.1559 16.9498 17.2144 16.8104 17.2156 16.6648C17.2169 16.5191 17.1609 16.3788 17.0597 16.274L16.6669 15.8812V14.7223Z" fill="white"/>
<path fill-rule="evenodd" clip-rule="evenodd" d="M3.33338 0.555563C3.33338 0.408218 3.39191 0.266909 3.4961 0.162721C3.60029 0.0585324 3.74159 0 3.88894 0C4.03628 0 4.17759 0.0585324 4.28178 0.162721C4.38597 0.266909 4.4445 0.408218 4.4445 0.555563V3.33338C4.4445 3.48072 4.50303 3.62203 4.60722 3.72622C4.71141 3.83041 4.85272 3.88894 5.00006 3.88894C5.14741 3.88894 5.28872 3.83041 5.39291 3.72622C5.4971 3.62203 5.55563 3.48072 5.55563 3.33338V1.66669H11.1113V0.555563C11.1113 0.408218 11.1698 0.266909 11.274 0.162721C11.3782 0.0585324 11.5195 0 11.6668 0C11.8142 0 11.9555 0.0585324 12.0597 0.162721C12.1638 0.266909 12.2224 0.408218 12.2224 0.555563V3.33338C12.2224 3.48072 12.2809 3.62203 12.3851 3.72622C12.4893 3.83041 12.6306 3.88894 12.7779 3.88894C12.9253 3.88894 13.0666 3.83041 13.1708 3.72622C13.275 3.62203 13.3335 3.48072 13.3335 3.33338V1.66669H15.0002C15.4422 1.66669 15.8662 1.84229 16.1787 2.15485C16.4913 2.46741 16.6669 2.89134 16.6669 3.33338V12.2613C17.64 12.4019 18.5237 12.9059 19.1402 13.6717C19.7568 14.4376 20.0604 15.4086 19.99 16.3893C19.9196 17.3699 19.4804 18.2876 18.7608 18.9575C18.0412 19.6275 17.0945 20.0001 16.1113 20.0003C15.4843 20.0007 14.8665 19.8493 14.3107 19.5591C13.7549 19.2688 13.2776 18.8484 12.9196 18.3336H1.66669C1.22466 18.3336 0.800726 18.158 0.488162 17.8454C0.175597 17.5328 0 17.1089 0 16.6669V3.33338C0 2.89134 0.175597 2.46741 0.488162 2.15485C0.800726 1.84229 1.22466 1.66669 1.66669 1.66669H3.33338V0.555563ZM12.2224 16.1113C12.2223 15.176 12.5592 14.272 13.1714 13.5649C13.7836 12.8578 14.6301 12.395 15.5558 12.2613V6.66675H1.11113V16.6669C1.11113 16.8142 1.16966 16.9555 1.27385 17.0597C1.37803 17.1639 1.51934 17.2224 1.66669 17.2224H12.3835C12.2763 16.8618 12.2221 16.4875 12.2224 16.1113ZM18.8891 16.1113C18.8891 16.848 18.5965 17.5546 18.0755 18.0755C17.5546 18.5965 16.848 18.8891 16.1113 18.8891C15.3746 18.8891 14.668 18.5965 14.1471 18.0755C13.6262 17.5546 13.3335 16.848 13.3335 16.1113C13.3335 15.3746 13.6262 14.668 14.1471 14.1471C14.668 13.6262 15.3746 13.3335 16.1113 13.3335C16.848 13.3335 17.5546 13.6262 18.0755 14.1471C18.5965 14.668 18.8891 15.3746 18.8891 16.1113Z" fill="white"/>
</svg>
