<svg width="30" height="30" viewBox="0 0 30 30" fill="none" xmlns="http://www.w3.org/2000/svg">
<path d="M14.5 3C21.3922 3 27 7.58429 27 13.2202C27 15.4761 26.1328 17.507 24.3203 19.5079C21.6984 22.5494 15.8344 26.2536 14.5 26.8204C13.2031 27.3714 13.3531 26.5103 13.4125 26.1702L13.4172 26.1419L13.5953 25.0635C13.6375 24.7423 13.6812 24.2433 13.5547 23.9253C13.4141 23.5742 12.8609 23.3916 12.4547 23.3034C6.44687 22.5053 2 18.2721 2 13.2202C2 7.58429 7.60938 3 14.5 3ZM9.84687 15.0999H7.46406V10.7423C7.46406 10.6774 7.4386 10.6152 7.39322 10.5692C7.34785 10.5232 7.28625 10.4971 7.22188 10.4967H6.34375C6.31174 10.4967 6.28004 10.5031 6.25047 10.5154C6.2209 10.5277 6.19403 10.5458 6.17139 10.5686C6.14876 10.5914 6.1308 10.6185 6.11855 10.6483C6.1063 10.6781 6.1 10.71 6.1 10.7423V16.2302C6.1 16.2948 6.12656 16.3562 6.16875 16.3987V16.4002L6.17188 16.4034L6.175 16.4065C6.22031 16.4505 6.28088 16.4748 6.34375 16.4742H9.84687C9.98125 16.4742 10.0891 16.364 10.0891 16.2286V15.3471C10.0893 15.3148 10.0832 15.2828 10.0711 15.253C10.059 15.2231 10.0413 15.1959 10.0188 15.1729C9.99629 15.15 9.96953 15.1317 9.94004 15.1192C9.91054 15.1067 9.87888 15.1001 9.84687 15.0999ZM11.0828 10.4967C11.0182 10.4967 10.9562 10.5226 10.9105 10.5686C10.8647 10.6147 10.8391 10.6772 10.8391 10.7423V16.2302C10.8391 16.3656 10.9484 16.4742 11.0828 16.4742H11.9609C12.0953 16.4742 12.2031 16.364 12.2031 16.2302V10.7423C12.2031 10.6774 12.1777 10.6152 12.1323 10.5692C12.0869 10.5232 12.0253 10.4971 11.9609 10.4967H11.0828ZM17.1187 10.4967C17.0541 10.4967 16.9921 10.5226 16.9464 10.5686C16.9007 10.6147 16.875 10.6772 16.875 10.7423V14.001L14.3797 10.6069C14.3734 10.5986 14.3666 10.5908 14.3594 10.5833C14.3544 10.5778 14.3492 10.571 14.3438 10.566L14.3391 10.5613C14.3337 10.5561 14.328 10.5514 14.3219 10.5471L14.3125 10.5408L14.3078 10.5376C14.3054 10.5358 14.3028 10.5342 14.3 10.5329L14.2875 10.525H14.2844L14.2797 10.5219L14.2641 10.5156L14.2578 10.5124C14.2527 10.5106 14.2475 10.509 14.2422 10.5077H14.2391L14.2344 10.5062L14.2203 10.503H14.2109L14.2063 10.5014H14.2L14.1969 10.4999H13.3C13.2356 10.4999 13.1739 10.5255 13.1282 10.5712C13.0825 10.6169 13.0567 10.679 13.0562 10.7439V16.2318C13.0562 16.3672 13.1656 16.4758 13.3 16.4758H14.175C14.3109 16.4758 14.4203 16.3656 14.4203 16.2318V12.973L16.9203 16.3735C16.9369 16.3969 16.9576 16.4172 16.9813 16.4333L16.9828 16.4349L16.9984 16.4443L17.0047 16.4475C17.0087 16.4499 17.0129 16.452 17.0172 16.4538L17.0281 16.4585L17.0359 16.4616C17.0411 16.4634 17.0463 16.465 17.0516 16.4664H17.0562C17.0766 16.4723 17.0976 16.4754 17.1187 16.4758H17.9938C18.1297 16.4758 18.2391 16.3656 18.2391 16.2318V10.7423C18.2391 10.6772 18.2134 10.6147 18.1677 10.5686C18.122 10.5226 18.06 10.4967 17.9953 10.4967H17.1187ZM23.0797 11.6255V10.7439C23.0799 10.7116 23.0738 10.6796 23.0617 10.6498C23.0497 10.6199 23.0319 10.5927 23.0094 10.5697C22.9869 10.5468 22.9602 10.5285 22.9307 10.516C22.9012 10.5035 22.8695 10.4969 22.8375 10.4967H19.3344C19.2713 10.4968 19.2108 10.5216 19.1656 10.566H19.1641L19.1625 10.5691L19.1594 10.5738C19.1157 10.619 19.0911 10.6793 19.0906 10.7423V16.2302C19.0906 16.2948 19.1172 16.3562 19.1594 16.3987L19.1625 16.4034L19.1656 16.4065C19.211 16.4503 19.2715 16.4746 19.3344 16.4742H22.8375C22.9719 16.4742 23.0797 16.364 23.0797 16.2286V15.3471C23.0799 15.3148 23.0738 15.2828 23.0617 15.253C23.0497 15.2231 23.0319 15.1959 23.0094 15.1729C22.9869 15.15 22.9602 15.1317 22.9307 15.1192C22.9012 15.1067 22.8695 15.1001 22.8375 15.0999H20.4531V14.1726H22.8359C22.9703 14.1726 23.0781 14.0624 23.0781 13.9271V13.0455C23.0783 13.0132 23.0722 12.9812 23.0602 12.9514C23.0481 12.9215 23.0303 12.8943 23.0078 12.8713C22.9853 12.8484 22.9586 12.8301 22.9291 12.8176C22.8996 12.8051 22.8679 12.7985 22.8359 12.7983H20.4531V11.8711H22.8359C22.9703 11.8711 23.0781 11.7609 23.0781 11.6255H23.0797Z" fill="#9B7B6C"/>
</svg>
