<svg width="25" height="25" viewBox="0 0 25 25" fill="none" xmlns="http://www.w3.org/2000/svg">
<path d="M12.1211 20.0117C11.3781 20.0117 10.7434 20.2477 10.218 20.7184C9.69297 21.1887 9.42891 21.7582 9.42891 22.4297C9.42891 23.1863 9.69453 23.7801 10.225 24.2121C10.757 24.6441 11.3766 24.8621 12.0848 24.8621C12.8047 24.8621 13.4328 24.6473 13.9703 24.2211C14.5074 23.793 14.7758 23.1965 14.7758 22.4293C14.7758 21.7578 14.5191 21.1883 14.0055 20.718C13.4918 20.248 12.8645 20.0117 12.1199 20.0117M19.7102 3.36602C19.0266 2.32852 18.0496 1.49883 16.8047 0.897656C15.5668 0.301953 14.125 0 12.518 0C10.7879 0 9.24805 0.361719 7.94336 1.07539C6.63711 1.79023 5.62773 2.70742 4.94336 3.80117C4.25586 4.90039 3.90625 6.00586 3.90625 7.08789C3.90625 7.66484 4.14688 8.20352 4.61875 8.68789C5.09297 9.17539 5.68281 9.42188 6.37187 9.42188C7.54766 9.42188 8.34883 8.73203 8.75664 7.37891C9.12812 6.25977 9.58633 5.40625 10.116 4.84063C10.6145 4.30781 11.423 4.0375 12.518 4.0375C13.4625 4.0375 14.2078 4.30234 14.7992 4.84805C15.3816 5.38633 15.6652 6.02773 15.6652 6.80898C15.6652 7.20352 15.573 7.55781 15.3883 7.89297C15.1918 8.24453 14.9469 8.56758 14.6605 8.85508C14.3578 9.1582 13.8582 9.61328 13.1754 10.2117C12.3801 10.909 11.7383 11.5195 11.2711 12.0266C10.7828 12.5535 10.3871 13.173 10.0914 13.8672C9.79609 14.566 9.64609 15.4 9.64609 16.3473C9.64609 17.1555 9.87148 17.7813 10.3168 18.2074C10.7574 18.6293 11.3062 18.8441 11.9488 18.8441C13.1773 18.8441 13.9492 18.1727 14.1789 16.9164C14.2953 16.3941 14.3836 16.0293 14.4422 15.8219C14.4953 15.6332 14.5723 15.4395 14.6711 15.2461C14.7672 15.0578 14.9191 14.8445 15.1242 14.6113C15.3379 14.3648 15.6266 14.0758 15.9805 13.7527C17.3043 12.5691 18.2383 11.7129 18.7562 11.2059C19.2906 10.6836 19.7566 10.0551 20.1414 9.33945C20.5375 8.60703 20.7383 7.74414 20.7383 6.77734C20.7391 5.5543 20.3918 4.40547 19.7082 3.36445" fill="#C84A2F"/>
</svg>
