<svg width="12" height="8" viewBox="0 0 12 8" fill="none" xmlns="http://www.w3.org/2000/svg">
<path fill-rule="evenodd" clip-rule="evenodd" d="M6.87983 7.63271C6.64436 7.8679 6.32515 8 5.99234 8C5.65953 8 5.34033 7.8679 5.10485 7.63271L0.367661 2.8972C0.25106 2.78054 0.158577 2.64206 0.0954933 2.48966C0.0324097 2.33726 -3.91006e-05 2.17393 0 2.00899C3.8147e-05 1.84405 0.0325651 1.68074 0.0957203 1.52837C0.158875 1.376 0.251423 1.23756 0.368079 1.12096C0.484736 1.00436 0.623218 0.911874 0.775617 0.84879C0.928015 0.785707 1.09135 0.753258 1.25628 0.753297C1.42122 0.753335 1.58454 0.785862 1.73691 0.849017C1.88928 0.912172 2.02771 1.00472 2.14432 1.12138L5.99234 4.9694L9.84037 1.12138C9.95616 1.00137 10.0947 0.905634 10.2479 0.839744C10.4011 0.773853 10.5659 0.73913 10.7326 0.737604C10.8994 0.736076 11.0648 0.767775 11.2191 0.830849C11.3735 0.893923 11.5138 0.98711 11.6317 1.10497C11.7497 1.22283 11.843 1.36301 11.9063 1.51732C11.9695 1.67164 12.0013 1.837 12 2.00375C11.9986 2.17051 11.964 2.33532 11.8983 2.48857C11.8325 2.64183 11.7369 2.78045 11.617 2.89636L6.88067 7.63355L6.87983 7.63271Z" fill="#B69B85"/>
</svg>
