<svg width="45" height="33" viewBox="0 0 45 33" fill="none" xmlns="http://www.w3.org/2000/svg">
<path fill-rule="evenodd" clip-rule="evenodd" d="M37.5909 29.903C36.6066 30.2526 35.6085 30.5677 34.6212 30.9072C32.5525 31.6189 30.4253 32.0853 28.2569 32.3735C25.8517 32.6931 23.4372 32.8032 21.0168 32.6538C19.2089 32.5418 17.4172 32.2769 15.6337 31.9502C12.4938 31.3752 9.3771 30.5499 6.42977 29.311C5.92397 29.0985 5.41941 28.8833 4.91407 28.6694C4.30273 28.4104 3.71379 28.1342 3.13968 27.801C2.57068 27.4705 1.98606 27.1569 1.51596 26.6885C0.816838 25.9922 0.302386 25.3119 0.111069 24.3198C-0.096783 23.2422 -0.0179693 22.0376 0.390317 21.0135C0.710363 20.21 1.01202 19.2677 1.51535 18.5583C1.74514 18.2344 1.89829 17.8626 2.09826 17.5212C3.06829 15.8657 4.1451 14.2845 5.34724 12.7901C6.23907 11.6818 7.18283 10.6136 8.23476 9.66072C9.61431 8.41114 11.1583 7.40819 13.0449 7.09974C15.0699 6.76888 16.972 7.11396 18.7405 8.18536C19.7461 8.79439 20.7175 9.45272 21.6685 10.1399C22.597 10.8113 23.4795 10.7159 24.3757 10.0985C25.1389 9.5731 25.9206 9.07503 26.7041 8.58005C28.0481 7.73102 29.4964 7.25829 31.0895 7.33108C31.9656 7.37126 32.8319 7.5258 33.6602 7.8409C34.5873 8.25568 35.464 8.74726 36.2351 9.42212C37.1375 10.2116 37.9619 11.072 38.764 11.9624C39.6842 12.9843 40.5071 14.0779 41.2673 15.214C41.7237 15.8971 42.1758 16.5886 42.5787 17.3044C42.7826 17.666 42.9844 18.0261 43.1771 18.3938C43.3707 18.7633 43.5702 19.1317 43.7215 19.5217C43.9465 20.1015 44.1347 20.7229 44.3494 21.3179C44.7762 22.5023 45.2334 23.6496 44.8651 24.9239C44.5008 26.1827 43.242 27.2051 42.1778 27.8788C40.9995 28.6249 39.6812 29.1169 38.3838 29.6113C38.1211 29.7122 37.8562 29.8088 37.5909 29.903Z" fill="white"/>
<path fill-rule="evenodd" clip-rule="evenodd" d="M33.664 7.91943C32.8383 7.66444 31.9965 7.4739 31.1339 7.42986C29.3904 7.34177 27.8409 7.91557 26.4131 8.87678C25.7384 9.33097 25.0567 9.77387 24.3769 10.2205C23.5522 10.7635 22.7058 10.9371 21.8213 10.3579C21.5319 10.1686 21.2395 9.98296 20.9638 9.77619C19.9154 8.9899 18.8111 8.29263 17.6345 7.71621C16.9537 7.38334 16.2112 7.21644 15.469 7.13005C13.5692 6.90999 11.8095 7.31086 10.1657 8.33019C8.88754 9.12281 7.84998 10.1548 6.83622 11.2392C5.93249 12.2054 5.0983 13.2228 4.32283 14.2907C3.4973 15.4282 2.7274 16.6248 2.01359 17.8425C1.92102 18.0009 1.82938 18.1604 1.73311 18.3173C1.67098 18.4193 1.49373 18.8062 1.36361 18.8047C1.35804 18.75 1.38725 18.709 1.40611 18.6574C1.42218 18.6131 1.43809 18.5684 1.4537 18.5234C1.48662 18.4313 1.51845 18.3388 1.54936 18.2457C1.61519 18.0493 1.67732 17.8515 1.74207 17.6548C1.87095 17.263 2.01467 16.8776 2.1655 16.4939C2.31633 16.1103 2.47349 15.7291 2.64765 15.3554C2.82074 14.9824 3.0051 14.6138 3.20229 14.2525C3.40056 13.8893 3.61768 13.5387 3.843 13.1925C3.87004 13.1508 3.89678 13.1089 3.92397 13.0681C4.31433 12.4886 4.71088 11.9136 5.10479 11.3369C5.1802 11.0791 5.41046 10.9378 5.55944 10.7356C5.71274 10.5285 5.82648 10.2897 6.00219 10.0993C6.19026 9.89503 6.44061 9.76074 6.62852 9.55597C6.82355 9.34472 6.98875 9.11863 7.22844 8.95405C8.16477 8.31056 8.99927 7.55179 9.91815 6.88836C10.8798 6.19356 11.9098 5.60168 12.9219 4.98555C12.9984 4.93903 13.0534 4.87474 13.1101 4.80922C13.6239 4.55052 14.0957 4.21549 14.6192 3.97287C14.7426 3.91553 14.8602 3.85573 14.9989 3.85573C15.9862 3.43709 16.9796 3.02509 18.031 2.80658C20.2866 2.33787 22.5542 2.12631 24.8617 2.44681C26.7537 2.70968 28.5734 3.19632 30.3342 3.92341C30.6993 4.00068 31.0157 4.19169 31.3251 4.38393C31.7732 4.66226 32.2286 4.92574 32.695 5.17176C33.0916 5.49706 33.4838 5.82793 33.9129 6.11104C33.9962 6.16574 34.0727 6.22385 34.1124 6.31966C34.297 6.7808 34.2579 7.25291 34.131 7.71173C34.0766 7.90784 33.9006 8.03317 33.664 7.91943Z" fill="#9B7B6C"/>
<path fill-rule="evenodd" clip-rule="evenodd" d="M32.6882 5.23262C32.2813 5.11347 31.8927 4.84937 31.5344 4.63024C31.183 4.41466 30.7135 4.2119 30.4199 3.94177C30.878 3.81011 31.2513 3.43257 31.6391 3.17063C32.1475 2.8271 32.6635 2.50535 33.2081 2.22224C34.3093 1.64999 35.4465 1.13801 36.6853 0.963076C38.369 0.724935 40.3409 0.919342 41.631 2.13725C43.6936 4.08379 43.614 7.11596 42.3097 9.43309C41.8345 10.2776 41.2632 10.9987 40.6421 11.7363C40.5099 11.8936 40.3812 12.0479 40.4134 12.2678C40.1939 12.2946 40.1463 12.0854 40.0341 11.9765C39.6982 11.6496 39.4898 11.2219 39.1955 10.8602C39.131 10.7808 39.1098 10.6845 39.1568 10.5838C40.0181 9.56784 40.4549 8.40001 40.3284 7.06558C40.2261 5.97996 39.8159 5.02709 38.8712 4.39503C38.2149 3.95584 37.4617 3.89464 36.7 3.95321C35.4112 4.05304 34.2116 4.44726 33.0993 5.10775C32.9747 5.18131 32.8526 5.28084 32.6882 5.23262Z" fill="#9B7B6C"/>
<path fill-rule="evenodd" clip-rule="evenodd" d="M33.085 5.58887C32.4548 5.40389 31.5443 4.95929 31.1088 4.46276C31.5137 4.22786 31.8974 3.96376 32.2947 3.70754C32.7601 3.40696 33.2445 3.1322 33.7369 2.87845C35.9517 1.73518 39.3966 0.991397 41.1548 3.28982C42.6713 5.27222 42.3554 7.8791 41.0536 9.87943C40.8188 10.2404 40.0131 11.9802 39.4507 11.4333C39.16 11.1499 38.9794 10.7793 38.7246 10.4659C38.6686 10.3968 38.6505 10.3135 38.6907 10.2262C39.4371 9.34581 39.8153 8.33375 39.7063 7.17735C39.6172 6.23622 39.2619 5.41069 38.4436 4.86316C37.8748 4.48223 37.2215 4.42938 36.5617 4.48007C35.4447 4.56676 34.4054 4.90829 33.4416 5.48069C33.3334 5.54421 33.2275 5.63075 33.085 5.58887Z" fill="white"/>
<path fill-rule="evenodd" clip-rule="evenodd" d="M14.9987 3.85604C14.4706 4.156 13.9439 4.45874 13.4122 4.75313C13.3198 4.80444 13.207 4.81711 13.1026 4.84755C12.8311 4.88495 12.6356 4.70754 12.4279 4.58917C11.3746 3.98755 10.2488 3.59673 9.05455 3.40804C8.56668 3.3317 8.07046 3.31053 7.57641 3.36369C6.41305 3.48809 5.8082 4.23574 5.45585 5.27036C4.93831 6.78977 5.09841 8.21197 6.03923 9.53033C6.11573 9.63804 6.22081 9.73895 6.19238 9.89349C5.96304 10.4745 5.55738 10.9236 5.10459 11.3369C4.87371 10.8989 4.50082 10.5756 4.18371 10.2092C2.54222 8.31258 1.69458 5.65315 2.65905 3.21858C3.15279 1.97208 4.28323 0.833457 5.58226 0.492703C6.86832 0.155195 8.33549 0.243436 9.60841 0.597479C10.3256 0.797296 11.0553 1.09153 11.7073 1.45222C12.329 1.79607 12.9221 2.18905 13.4953 2.608C13.6278 2.70474 14.9945 3.85836 14.9987 3.85604Z" fill="#9B7B6C"/>
<path fill-rule="evenodd" clip-rule="evenodd" d="M39.2134 10.6311C39.5479 11.2327 39.9839 11.7582 40.4401 12.2689C41.7312 14.0482 42.8444 15.9229 43.4752 18.0475C43.5616 18.3376 43.633 18.6327 43.7025 18.9273C43.774 19.2328 43.8949 19.7899 43.8431 19.8513C43.6432 19.4417 43.4546 19.0288 43.2366 18.6276C43.0261 18.2416 42.804 17.8619 42.5807 17.4828C42.4545 17.2691 42.328 17.0548 42.2032 16.84C41.2418 15.1819 40.1202 13.639 38.8661 12.1887C37.789 10.9436 36.6459 9.77283 35.3064 8.80512C34.804 8.44196 34.217 8.23735 33.6907 7.92009C33.9605 7.88655 34.1166 7.8133 34.1045 7.46065C34.096 7.17754 34.3328 6.88237 33.9066 6.62012C34.4119 6.70713 33.9503 6.40732 34.1088 6.36328C34.4223 6.39712 34.6364 6.61796 34.8693 6.78918C35.9732 7.60267 37.0282 8.47549 38.0359 9.40611C38.4523 9.79045 38.8233 10.2196 39.2134 10.6311Z" fill="#9B7B6C"/>
<path fill-rule="evenodd" clip-rule="evenodd" d="M21.0016 18.3272C20.9782 19.4463 20.9789 19.4494 20.2586 19.6018C19.5331 19.7554 18.916 20.1411 18.2914 20.5109C16.4059 21.6278 14.7318 23.0316 13.0243 24.3898C11.8271 25.3414 10.5849 26.2388 9.48262 27.3054C8.95766 27.8137 8.49791 28.3714 8.15376 29.0205C8.08669 29.1481 8.04249 29.2868 7.82568 29.1744C6.51768 28.4986 5.23224 27.7941 4.23022 26.6797C3.03982 25.3553 2.47437 23.8154 2.65657 22.0303C2.90661 19.5856 4.29003 17.8699 6.21787 16.4959C7.21556 15.785 8.34121 15.2862 9.33179 14.5681C10.2006 13.9375 11.0312 13.2509 11.9285 12.6639C13.4929 11.64 15.2062 11.2959 17.0096 11.8984C18.6882 12.4589 19.7143 13.7294 20.3918 15.3074C20.8551 16.3876 20.9931 17.5328 21.0016 18.3272Z" fill="#9B7B6C"/>
<path fill-rule="evenodd" clip-rule="evenodd" d="M42.4232 23.7605C42.222 26.0364 40.8578 27.9427 38.3965 29.0784C37.96 29.2795 37.5181 29.4683 37.0589 29.6148C36.8964 29.6664 36.7771 29.6559 36.6842 29.4941C35.6829 27.7426 34.1475 26.4912 32.6423 25.2172C30.8833 23.7285 29.1558 22.2006 27.3143 20.8129C26.5855 20.2635 25.8102 19.7773 24.9113 19.5427C24.7594 19.5035 24.7498 19.4243 24.7539 19.3052C24.8422 16.8444 25.4523 14.5937 27.4044 12.9131C28.3968 12.059 29.5668 11.8298 30.8569 11.989C32.4412 12.1834 33.7407 12.9137 34.9138 13.9469C35.9778 14.8839 37.1798 15.6387 38.3163 16.481C39.662 17.4789 40.8558 18.6204 41.6634 20.1281C42.1078 20.9581 42.4588 22.2137 42.4232 23.7605Z" fill="#9B7B6C"/>
<path fill-rule="evenodd" clip-rule="evenodd" d="M22.5781 22.8156C21.905 22.7675 21.2774 22.5213 20.8011 21.9656C20.2302 21.2991 20.4069 20.3313 21.2106 19.9832C22.3805 19.4762 23.556 19.5827 24.6384 20.2293C25.3692 20.6647 25.3281 21.6496 24.5976 22.1885C24.0164 22.6179 23.3448 22.8083 22.5781 22.8156Z" fill="#9B7B6C"/>
<path fill-rule="evenodd" clip-rule="evenodd" d="M22.7464 24.9321C22.3888 25.5674 21.4359 25.9876 20.6824 25.885C20.059 25.7995 19.5114 25.6037 19.1622 25.0404C19.0586 24.8726 19.0182 24.6819 19.1308 24.5164C19.2422 24.3531 19.4329 24.3061 19.6267 24.3483C19.7452 24.3739 19.8357 24.449 19.9236 24.5472C20.6045 25.3132 21.4805 25.3044 22.1682 24.5354C22.64 24.0072 23.1985 24.0427 23.6074 24.6263C24.0519 25.2613 25.0896 25.3885 25.6697 24.878C25.7907 24.7723 25.9035 24.657 26.0317 24.562C26.2148 24.4277 26.3917 24.4419 26.565 24.6012C26.7346 24.7583 26.6711 24.9157 26.5835 25.0687C26.2746 25.609 25.7612 25.8414 25.1825 25.9148C24.0006 26.063 23.6257 25.9 22.7464 24.9321Z" fill="#9B7B6C"/>
<path fill-rule="evenodd" clip-rule="evenodd" d="M12.3249 5.07387C12.961 4.90883 13.8851 4.49282 14.3357 4.0102C13.9386 3.76263 13.564 3.48709 13.1745 3.21789C12.7188 2.90279 12.2433 2.61365 11.7594 2.34414C9.5814 1.13133 6.16181 0.27906 4.33194 2.52124C2.75381 4.45449 2.98732 7.07018 4.22531 9.11022C4.44846 9.47849 5.19889 11.2433 5.77794 10.7139C6.07805 10.4402 6.26999 10.0752 6.53487 9.77009C6.59282 9.70303 6.61368 9.62035 6.57628 9.53134C5.85784 8.62822 5.51137 7.60472 5.65725 6.45234C5.77578 5.51461 6.15687 4.70051 6.9926 4.17895C7.57304 3.81672 8.22735 3.78411 8.88491 3.85597C9.99881 3.97759 11.0271 4.35188 11.9724 4.95426C12.0778 5.02164 12.1813 5.11096 12.3249 5.07387Z" fill="white"/>
<path fill-rule="evenodd" clip-rule="evenodd" d="M5.55358 10.8925C5.7483 10.9347 5.86606 10.7664 5.97609 10.6498C7.6216 8.91918 9.52163 7.58785 11.4065 6.23225C11.6689 6.04356 11.9508 5.88964 12.2232 5.71981C12.7184 5.3721 13.2147 5.02656 13.7085 4.67514C13.8317 4.58767 13.9908 4.54208 14.0394 4.35494C12.6556 3.17242 11.1282 2.32092 9.38749 2.02452C6.77875 1.57992 4.75447 3.45368 4.45174 5.93863C4.28793 7.28264 4.38003 8.6642 4.98396 9.89509C5.06123 10.0527 5.389 10.8568 5.55358 10.8925Z" fill="#9B7B6C"/>
<path fill-rule="evenodd" clip-rule="evenodd" d="M39.677 11.6056C39.4806 11.6388 39.3707 11.4653 39.2658 11.344C37.7014 9.54022 35.8641 8.12312 34.0438 6.68283C33.7901 6.4824 33.5155 6.31581 33.2507 6.13345C32.7723 5.76334 32.2918 5.39554 31.8146 5.02187C31.6959 4.92915 31.461 4.93193 31.4213 4.74324C32.8579 3.62501 34.5008 2.78835 36.2531 2.57184C38.8787 2.24701 40.815 4.21163 41.0045 6.70756C41.1066 8.05759 40.9513 9.43343 40.2916 10.6359C40.2074 10.7895 39.8433 11.5775 39.677 11.6056Z" fill="#9B7B6C"/>
<path fill-rule="evenodd" clip-rule="evenodd" d="M18.2208 18.0343C18.2169 19.2437 17.4977 20.4439 16.2243 20.6605C15.8122 20.7308 15.2945 20.7166 14.8905 20.599C13.7154 20.2583 12.9725 19.2088 13.1227 17.8585C13.2804 16.4404 14.8047 15.1456 16.1656 15.32C16.9579 15.4211 17.4263 15.9271 17.8043 16.5274C18.0883 16.9773 18.2223 17.507 18.2208 18.0343Z" fill="white"/>
<path fill-rule="evenodd" clip-rule="evenodd" d="M17.7816 18.0283C17.7783 19.0219 17.1891 20.0056 16.1481 20.1987C15.8001 20.2633 15.3646 20.2528 15.0228 20.1534C14.0498 19.8706 13.4343 19.0014 13.5585 17.8831C13.6891 16.7084 14.9515 15.6363 16.0792 15.7807C16.7347 15.8649 17.1231 16.2832 17.4362 16.7804C17.6715 17.154 17.7828 17.592 17.7816 18.0283Z" fill="#9B7B6C"/>
<path fill-rule="evenodd" clip-rule="evenodd" d="M22.7314 20.2162C23.0577 20.2228 23.2636 20.3608 23.2656 20.5531C23.2676 20.7475 23.0468 20.9473 22.8332 20.9442C22.6419 20.9414 22.3755 20.6966 22.3912 20.5141C22.4092 20.2964 22.5472 20.1995 22.7314 20.2162Z" fill="white"/>
<path fill-rule="evenodd" clip-rule="evenodd" d="M15.7302 17.9818C15.2817 17.971 14.9091 17.5408 14.9402 17.1031C14.9649 16.7509 15.4109 16.4261 15.8118 16.4907C16.0816 16.5341 16.3508 16.5828 16.5203 16.8558C16.7889 17.289 16.6592 17.7073 16.1785 17.8891C16.0241 17.9477 15.8646 17.9715 15.7302 17.9818Z" fill="white"/>
<path fill-rule="evenodd" clip-rule="evenodd" d="M27.4945 18.0185C27.4984 19.2279 28.2173 20.428 29.491 20.6447C29.9031 20.7147 30.4207 20.7008 30.8246 20.5835C31.9997 20.2421 32.7426 19.1927 32.5928 17.843C32.4348 16.4246 30.9109 15.1294 29.5496 15.3039C28.7572 15.4053 28.2892 15.9112 27.9108 16.5115C27.6273 16.9615 27.4928 17.4909 27.4945 18.0185Z" fill="white"/>
<path fill-rule="evenodd" clip-rule="evenodd" d="M27.9337 18.0128C27.9373 19.0062 28.5259 19.9901 29.5672 20.1833C29.9152 20.2479 30.351 20.2371 30.6924 20.1377C31.6658 19.8549 32.2809 18.9862 32.1568 17.8674C32.0259 16.6929 30.7641 15.6206 29.6361 15.7651C28.9806 15.849 28.5925 16.2673 28.2794 16.7651C28.0433 17.1384 27.9323 17.5764 27.9337 18.0128Z" fill="#9B7B6C"/>
<path fill-rule="evenodd" clip-rule="evenodd" d="M29.9854 17.9661C30.4337 17.955 30.8061 17.5251 30.7754 17.0874C30.7503 16.7352 30.3043 16.4107 29.9033 16.475C29.6335 16.5181 29.3649 16.5671 29.1949 16.8405C28.9265 17.2733 29.0563 17.6913 29.5364 17.8731C29.6913 17.9321 29.8506 17.9559 29.9854 17.9661Z" fill="white"/>
</svg>
