<svg width="40" height="40" viewBox="0 0 40 40" fill="none" xmlns="http://www.w3.org/2000/svg">
<circle cx="20" cy="20" r="20" fill="#B69B85"/>
<path fill-rule="evenodd" clip-rule="evenodd" d="M18.1652 14.6575C18.5868 14.2365 19.1581 14 19.7539 14C20.3496 14 20.921 14.2365 21.3425 14.6575L29.8222 23.1342C30.031 23.343 30.1965 23.5909 30.3094 23.8637C30.4223 24.1365 30.4804 24.4288 30.4804 24.7241C30.4803 25.0193 30.4221 25.3117 30.309 25.5844C30.196 25.8572 30.0303 26.105 29.8215 26.3137C29.6127 26.5224 29.3648 26.688 29.092 26.8009C28.8192 26.9138 28.5268 26.9719 28.2316 26.9718C27.9363 26.9717 27.644 26.9135 27.3712 26.8005C27.0985 26.6874 26.8507 26.5218 26.642 26.3129L19.7539 19.4249L12.8658 26.3129C12.6585 26.5277 12.4105 26.6991 12.1363 26.8171C11.8621 26.935 11.5672 26.9972 11.2687 26.9999C10.9702 27.0026 10.6741 26.9459 10.3978 26.833C10.1214 26.7201 9.87037 26.5533 9.65919 26.3423C9.44802 26.1313 9.28097 25.8804 9.16781 25.6042C9.05464 25.328 8.99762 25.032 9.00008 24.7335C9.00253 24.435 9.0644 24.1399 9.18209 23.8656C9.29978 23.5913 9.47092 23.3431 9.68554 23.1357L18.1638 14.656L18.1652 14.6575Z" fill="white"/>
</svg>
