<svg width="100" height="53" viewBox="0 0 100 53" fill="none" xmlns="http://www.w3.org/2000/svg">
<path d="M7.29536 29.6132C5.18895 31.0037 5.10427 31.9415 0.660156 31.095C2.41927 31.011 4.04201 29.3231 5.83295 27.9136L7.29536 29.6132Z" fill="#F1EBDC"/>
<path d="M5.51294 28.0682C4.77485 28.6472 3.99539 29.1563 3.15918 29.582C2.23329 30.0534 1.27357 30.4581 0.336184 30.9059C0.0487673 31.0431 0.608276 31.2692 0.71971 31.2843C2.01536 31.4596 3.30692 31.4589 4.58458 31.1613C5.6456 30.9142 6.64981 30.4765 7.6761 30.1202C7.85494 30.058 7.69038 29.9073 7.59927 29.8539C7.44823 29.7657 7.2036 29.6804 7.02801 29.7414C6.06088 30.0772 5.11512 30.4802 4.12215 30.7371C2.97008 31.0351 1.77723 31.0652 0.600873 30.906C0.728671 31.0321 0.856535 31.1583 0.984333 31.2844C1.94393 30.8261 2.92255 30.4065 3.87272 29.9288C4.72426 29.5006 5.51703 28.9829 6.26648 28.3948C6.44636 28.2536 5.71132 27.9125 5.51294 28.0682Z" fill="black"/>
<path d="M0.454346 30.9534L2.14482 30.3301L2.35314 31.3067C2.35314 31.3067 1.94559 31.4962 0.454346 30.9534Z" fill="#4C2A1E"/>
<path d="M86.1725 29.883C88.6922 29.732 89.2344 28.9624 92.6602 31.9169C91.0945 31.1109 88.8451 31.7615 86.5892 32.0863L86.1725 29.883Z" fill="#F1EBDC"/>
<path d="M86.967 31.9618C87.8524 31.8358 88.7779 31.7871 89.6402 31.8359C90.6742 31.8942 91.704 32.0196 92.7365 32.0998C92.9042 32.1128 93.2222 32.0505 92.9777 31.8615C91.954 31.0705 90.8225 30.4449 89.58 30.0741C88.5136 29.756 87.4074 29.6231 86.3175 29.4142C86.2248 29.3964 85.9004 29.3399 85.8683 29.4923C85.8367 29.6424 86.1551 29.7276 86.2474 29.7454C87.2214 29.9321 88.2885 30.0633 89.1976 30.3197C90.3578 30.6469 91.3923 31.2378 92.3426 31.9721C92.423 31.8927 92.5034 31.8132 92.5838 31.7338C91.5203 31.6512 90.4595 31.5221 89.3942 31.4647C88.4008 31.4111 87.4158 31.4635 86.4309 31.6038C86.2665 31.6273 86.2493 31.7499 86.3814 31.838C86.5458 31.9479 86.7731 31.9894 86.967 31.9618Z" fill="black"/>
<path d="M92.7677 32.1434L90.9911 31.8379L91.2995 30.8877C91.2995 30.8877 91.7476 30.927 92.7677 32.1434Z" fill="#4C2A1E"/>
<path d="M86.0665 26.4967C88.5864 26.3457 90.0421 26.4334 92.5816 28.0206C90.8886 28.444 88.7393 28.3753 86.4833 28.7003L86.0665 26.4967Z" fill="#F1EBDC"/>
<path d="M86.6085 28.3725C87.6486 28.4879 88.6903 28.4912 89.7314 28.3888C90.7538 28.2884 91.7669 28.1095 92.7844 27.9701C92.8826 27.9567 93.1033 27.8666 92.9522 27.7498C91.9284 26.9583 90.7984 26.2977 89.5098 26.0685C88.3218 25.8571 87.1168 26.0386 85.9507 26.2909C85.8561 26.3113 85.6294 26.3896 85.7829 26.5113C85.9253 26.624 86.1843 26.65 86.3561 26.6128C86.8775 26.5 87.4019 26.4 87.9329 26.3448C88.3784 26.2985 88.8194 26.3075 89.2159 26.3705C90.3186 26.5458 91.3261 27.1845 92.211 27.8686C92.2668 27.7951 92.3229 27.7217 92.3788 27.6481C91.3984 27.7826 90.4223 27.9529 89.4378 28.0558C88.5028 28.1535 87.5661 28.1383 86.6324 28.0346C86.5391 28.0243 86.209 28.0219 86.1983 28.1736C86.1871 28.3303 86.5147 28.362 86.6085 28.3725Z" fill="black"/>
<path d="M92.5585 27.7972L91.1002 27.915L91.2061 26.9626C91.2061 26.9626 91.5384 26.5807 92.5585 27.7972Z" fill="#4C2A1E"/>
<path d="M6.84023 26.3685C4.75584 27.2716 2.3841 27.975 0.708496 25.8233C2.28039 26.0238 4.00152 25.603 5.8094 24.6338L6.84023 26.3685Z" fill="#F1EBDC"/>
<path d="M5.16839 24.2519C3.73754 25.014 2.08661 25.613 0.441598 25.4114C0.321267 25.3967 0.18087 25.3863 0.0678777 25.4414C-0.00517793 25.4771 -0.0279712 25.5555 0.0431363 25.6105C1.05838 26.3963 2.23643 26.9891 3.52721 27.1233C4.72882 27.248 5.90687 26.9566 6.89731 26.2616C7.16973 26.0704 6.38157 25.8585 6.19883 25.9867C5.42165 26.532 4.53018 26.8509 3.57429 26.7873C2.55813 26.7198 1.58308 26.1602 0.791096 25.5473C0.658232 25.6136 0.525433 25.68 0.392569 25.7465C2.31091 25.9813 4.18412 25.4231 5.8668 24.5268C6.03382 24.4379 5.84862 24.3144 5.75017 24.2756C5.58757 24.2116 5.33236 24.1646 5.16839 24.2519Z" fill="black"/>
<path d="M0.270874 25.4567L1.89277 25.4497L1.7679 26.3392C1.7679 26.3392 1.36534 26.3743 0.270874 25.4567Z" fill="#4C2A1E"/>
<path d="M7.5455 18.7424C2.11757 26.9453 2.11718 51.5524 51.3329 51.5524C78.1118 51.5524 89.2606 38.7419 85.8318 22.1202C81.5696 1.45867 54.6362 -3.89731 36.3836 3.82372C25.6394 8.36875 21.6587 12.5905 14.5415 11.6258L7.5455 18.7424Z" fill="white"/>
<path d="M33.4504 9.45156C33.4504 9.45156 49.5984 -4.09827 65.5368 1.2494C82.5045 6.94137 85.5611 22.2379 85.5611 22.2379C79.9781 16.217 68.2474 9.07661 62.8832 7.76265C52.0603 5.11193 41.6527 7.28029 33.4504 9.45156Z" fill="#F1EBDC"/>
<path d="M48.0733 46.2263C48.0733 46.2263 34.5789 52.7799 18.64 47.4329C1.67196 41.7409 9.23097 25.7202 9.23097 25.7202C13.091 33.9223 15.6495 38.4681 20.3289 41.4015C27.3254 45.7873 39.8703 48.398 48.0733 46.2263Z" fill="#F1EBDC"/>
<path d="M14.5599 12.1578C17.5411 12.5529 20.4241 12.0068 23.1854 10.8683C26.5733 9.47148 29.7507 7.58392 33.053 6.00215C36.3142 4.44 39.6305 3.08006 43.1512 2.22989C46.2111 1.49096 49.3516 1.09509 52.4972 1.01126C58.7016 0.845989 65.0256 1.92156 70.6812 4.52831C76.0517 7.00376 80.706 10.9836 83.4408 16.2797C84.8275 18.9648 85.6392 21.9101 86.0167 24.9005C86.3386 27.4497 86.3039 30.0489 85.8155 32.5746C84.8573 37.5297 81.9958 41.8177 78 44.854C72.8771 48.7466 66.3828 50.4887 60.0897 51.2562C55.8443 51.7739 51.5608 51.8012 47.2912 51.669C43.3081 51.5459 39.3263 51.23 35.3829 50.6487C29.5765 49.7928 23.7456 48.339 18.4979 45.6502C14.9493 43.832 11.6671 41.3784 9.29902 38.1383C7.50887 35.689 6.33277 32.8256 5.94697 29.8134C5.62838 27.3256 5.84826 24.7602 6.62155 22.3727C6.99436 21.2217 7.50023 20.1055 8.16747 19.0944C8.28079 18.9226 7.48809 18.8951 7.34639 19.1098C6.13529 20.9454 5.44643 23.1081 5.13888 25.2738C4.75802 27.9559 5.01946 30.7154 5.87645 33.2838C6.93299 36.4502 8.89192 39.2364 11.3339 41.4906C14.7229 44.6189 18.9418 46.7217 23.2666 48.2268C29.7308 50.4766 36.617 51.4348 43.4237 51.8533C51.4468 52.3465 59.6872 52.2939 67.4987 50.1874C72.998 48.7045 78.4065 46.0952 82.1818 41.7198C85.4347 37.95 87.0387 33.1425 87.0661 28.1917C87.0982 22.3817 85.2429 16.565 81.5922 12.0214C77.8615 7.37826 72.519 4.3022 66.8911 2.54464C60.8855 0.669162 54.4345 0.243361 48.2025 0.983333C45.084 1.35368 42.0016 2.04332 39.0275 3.05201C35.2371 4.33746 31.6392 6.18398 28.0908 8.0168C25.9069 9.14491 23.7266 10.3291 21.3986 11.1384C19.3071 11.8654 17.1426 12.1043 14.946 11.8131C14.7697 11.7897 14.5175 11.8247 14.3795 11.9476C14.2347 12.0767 14.4627 12.1449 14.5599 12.1578Z" fill="black"/>
<path d="M8.1472 8.97756C8.60437 8.0633 9.11193 7.53009 9.41701 6.61621C10.2296 7.63133 10.6359 9.25745 10.6359 9.25745C12.8708 9.56168 13.8868 10.3743 13.8868 10.3743C14.0897 10.4759 16.8321 9.76494 17.2388 10.1709C17.5431 10.8818 15.2069 12.1011 15.2069 12.1011C16.1212 12.5074 17.2582 14.8258 16.1212 16.2658C14.5977 18.1961 10.8388 18.907 5.65864 18.5011C4.83483 18.4366 2.61108 18.2978 2.00183 17.3835C3.72874 17.3835 5.07413 15.669 4.54131 15.0473C3.9316 14.336 -1.24866 9.6889 8.1472 8.97756Z" fill="white"/>
<path d="M7.92602 9.5585C8.36007 8.69008 8.84237 8.18336 9.13212 7.31494C9.90378 8.28012 10.2898 9.82429 10.2898 9.82429C12.4131 10.1137 13.3783 10.8858 13.3783 10.8858C13.5709 10.9817 16.1766 10.3063 16.5626 10.6923C16.8519 11.3677 14.6323 12.5258 14.6323 12.5258C15.5011 12.9119 16.5816 15.1145 15.5011 16.4827C14.8472 17.3106 13.7601 17.9025 12.3114 18.267C12.3114 18.267 12.7144 14.218 10.2931 13.0073C8.95263 12.3373 7.2369 14.177 7.21047 13.5434C7.07656 10.3269 2.67167 12.5722 2.67167 12.5722C2.39698 11.2572 3.30949 9.90773 7.92602 9.5585Z" fill="#997A6C"/>
<path d="M8.90191 13.7652C8.85399 13.4791 8.90191 11.9316 10.542 11.9316C12.1829 11.9316 16.1393 15.1159 15.0779 16.2741C14.0161 17.4318 12.3755 18.3969 10.928 17.8178C10.4457 17.6248 9.38428 16.6602 8.90191 13.7652Z" fill="#4C2A1E"/>
<path d="M3.78701 11.8346C3.78701 11.8346 6.0066 10.0978 7.16516 11.3518C8.05501 12.3166 4.65575 16.0803 3.97994 14.9226C3.30471 13.7649 2.14653 12.7993 3.78701 11.8346Z" fill="#4C2A1E"/>
<path d="M8.49695 9.16302C8.85015 8.45552 9.16263 7.74224 9.41368 6.99181C9.15003 6.9709 8.88645 6.94999 8.6228 6.92908C9.17321 7.62736 9.53057 8.53208 9.74655 9.39076C9.77688 9.51116 10.0271 9.57519 10.1245 9.58876C10.9364 9.70208 11.702 9.89351 12.4119 10.237C12.4398 10.2505 12.4674 10.2644 12.495 10.2784C12.5063 10.2841 12.5934 10.3302 12.5166 10.2892C12.5604 10.3126 12.6038 10.337 12.6468 10.3619C12.7136 10.4005 12.7792 10.4414 12.8432 10.4845C12.8703 10.5027 12.8969 10.5215 12.9228 10.5413C12.773 10.4268 12.987 10.5789 13.013 10.5898C13.1263 10.6371 13.2427 10.6613 13.3644 10.6732C13.5879 10.6952 13.8208 10.6474 14.0407 10.6129C14.3341 10.5669 14.6265 10.5151 14.9198 10.4693C15.2437 10.4187 15.502 10.3822 15.8106 10.362C15.877 10.3578 15.9436 10.3553 16.0101 10.3539C16.0411 10.3533 16.0721 10.3535 16.103 10.3537C16.0008 10.3529 16.0972 10.3549 16.1161 10.356C16.1428 10.3575 16.1693 10.3602 16.1958 10.3628C16.0675 10.3496 16.1512 10.357 16.1803 10.3623C16.2649 10.3778 16.0764 10.333 16.1541 10.3563C16.089 10.3308 16.0747 10.3257 16.1112 10.3411C16.0584 10.3114 16.0469 10.3055 16.0767 10.3235C16.0611 10.3139 16.0188 10.2524 16.0333 10.2981C16.0467 10.3407 16.0365 10.2884 16.0388 10.333C16.041 10.3767 16.0314 10.4204 16.02 10.4622C15.9912 10.5682 15.9244 10.6575 15.8565 10.7416C15.6676 10.9755 15.4213 11.1648 15.1794 11.3402C14.8554 11.5752 14.5099 11.7865 14.1552 11.972C13.9887 12.0591 14.1608 12.1812 14.2613 12.2278C14.347 12.2675 14.1997 12.1903 14.2851 12.2395C14.312 12.255 14.3376 12.2726 14.3632 12.2901C14.3966 12.3131 14.4415 12.3523 14.487 12.3946C14.606 12.5051 14.7112 12.6325 14.8032 12.7659C15.0188 13.0778 15.1749 13.4305 15.2818 13.7932C15.5076 14.5589 15.4342 15.4064 14.9136 16.0352C14.1016 17.0163 12.8186 17.4895 11.6126 17.7615C9.80805 18.1685 7.92003 18.178 6.08195 18.0726C5.6957 18.0504 5.30951 18.0215 4.92397 17.9885C4.77072 17.9753 4.6176 17.9599 4.4648 17.9425C4.4233 17.9377 4.38187 17.9326 4.34044 17.9275C4.20186 17.9104 4.42265 17.9394 4.28219 17.92C4.1803 17.9059 4.07854 17.8898 3.97704 17.8727C3.8884 17.8577 3.80009 17.8407 3.71197 17.8231C3.66774 17.8142 3.62371 17.8045 3.57969 17.7948C3.58176 17.7952 3.43825 17.7611 3.51423 17.78C3.35403 17.7402 3.13103 17.6711 3.02901 17.6311C2.7788 17.533 2.52788 17.412 2.36326 17.1738C2.28767 17.2244 2.21209 17.2749 2.13656 17.3254C2.95595 17.317 3.74814 16.9819 4.3283 16.4039C4.67097 16.0625 5.11548 15.4211 4.7704 14.9447C4.66039 14.7929 4.50941 14.6647 4.37856 14.5314C4.17666 14.3257 3.97906 14.1158 3.79119 13.8971C3.55676 13.6242 3.3924 13.4097 3.21363 13.1229C3.03972 12.8439 2.8929 12.5445 2.80718 12.2262C2.63185 11.575 2.86563 10.9654 3.40611 10.5387C3.8286 10.205 4.3809 10 4.90514 9.85273C5.80921 9.59863 6.75101 9.48414 7.68509 9.41219C7.78269 9.40466 8.01471 9.35044 7.87737 9.2129C7.74704 9.08243 7.49664 9.03185 7.31968 9.04548C6.4095 9.11549 5.4968 9.22277 4.60902 9.44109C4.02861 9.58376 3.44351 9.7726 2.93082 10.0861C2.30664 10.4678 1.84155 11.0594 1.92571 11.823C2.0011 12.5064 2.39008 13.1088 2.80341 13.6392C3.137 14.0672 3.52105 14.4467 3.89672 14.8364C3.98769 14.9308 4.0299 14.9751 4.05835 15.1062C4.11329 15.3594 3.93964 15.6613 3.80223 15.8576C3.35013 16.5033 2.56204 16.9507 1.77109 16.9588C1.72278 16.9593 1.46698 16.9985 1.54439 17.1105C1.96967 17.7259 2.78173 17.9559 3.47273 18.1175C4.13134 18.2715 4.80955 18.331 5.48251 18.383C7.44891 18.5347 9.44537 18.5661 11.3985 18.2532C12.7474 18.037 14.1646 17.6344 15.2316 16.7423C15.7729 16.2897 16.1616 15.7105 16.2272 14.9941C16.2973 14.2281 16.0306 13.4207 15.5981 12.7947C15.374 12.4705 15.0969 12.1876 14.7354 12.02C14.7708 12.1052 14.8062 12.1905 14.8415 12.2758C15.1987 12.089 15.5437 11.8741 15.8746 11.6444C16.118 11.4753 16.3545 11.2914 16.5588 11.0761C16.7048 10.9222 16.8687 10.7129 16.8704 10.4905C16.8729 10.1755 16.4918 10.0816 16.2432 10.0297C15.9489 9.96826 15.6374 9.97982 15.3396 10.0029C14.7104 10.0515 14.0901 10.1733 13.4676 10.2709C13.4052 10.2807 13.3427 10.2899 13.2801 10.2983C13.2571 10.3015 13.2339 10.3043 13.2108 10.307C13.3158 10.2945 13.2235 10.3049 13.2009 10.3067C13.0612 10.3177 13.2607 10.3179 13.2963 10.3231C13.5577 10.3616 13.7366 10.553 13.5445 10.4091C13.3893 10.2929 13.2167 10.2004 13.0457 10.1103C12.1644 9.6461 11.1686 9.39284 10.1873 9.25595C10.3133 9.32193 10.4392 9.38797 10.5652 9.45395C10.3378 8.54975 9.95143 7.63119 9.37264 6.897C9.26335 6.75836 8.66033 6.59945 8.58176 6.83427C8.3307 7.58463 8.01822 8.29798 7.66496 9.00548C7.58073 9.17478 8.37337 9.41044 8.49695 9.16302Z" fill="black"/>
<path d="M2.91849 17.3834C2.91849 17.7297 2.50808 18.0108 2.00176 18.0108C1.49583 18.0108 1.08496 17.7298 1.08496 17.3834C1.08496 17.037 1.49583 16.7563 2.00176 16.7563C2.50808 16.7563 2.91849 17.0371 2.91849 17.3834Z" fill="black"/>
<path d="M7.96029 18.2342C8.21907 17.877 8.35388 17.4715 8.35946 17.0305C8.36239 16.7965 7.51663 16.811 7.51345 17.0602C7.50819 17.4754 7.385 17.8366 7.14135 18.1729C7.04024 18.3124 7.3826 18.366 7.44409 18.3706C7.59722 18.3821 7.85808 18.3752 7.96029 18.2342Z" fill="black"/>
<path d="M5.32829 13.6687C5.32829 13.9299 5.15101 14.1411 4.93191 14.1411C4.71203 14.1411 4.53552 13.9299 4.53552 13.6687C4.53552 13.4075 4.71203 13.1963 4.93191 13.1963C5.15094 13.1963 5.32829 13.4075 5.32829 13.6687Z" fill="black"/>
<path d="M11.4316 14.7498C11.4316 15.011 11.2538 15.2222 11.0348 15.2222C10.8157 15.2222 10.6379 15.011 10.6379 14.7498C10.6379 14.4885 10.8157 14.2773 11.0348 14.2773C11.2537 14.2773 11.4316 14.4885 11.4316 14.7498Z" fill="black"/>
<path d="M82.7927 17.1931C91.0208 19.6615 104.542 10.7397 98.426 6.29108C96.1631 4.64521 92.2541 8.24611 90.4033 12.2562C89.169 14.9305 87.3181 16.3705 83.2039 16.5763L82.7927 17.1931Z" fill="#F1EBDC"/>
<path d="M92.589 7.68008L94.5946 6.36865L99.2998 9.68564L98.0656 12.3082L92.589 7.68008Z" fill="#4C2A1E"/>
<path d="M90.4291 11.3053L91.5864 9.146L96.6 13.0024L94.3631 14.931L90.4291 11.3053Z" fill="#4C2A1E"/>
<path d="M87.8064 14.8541L89.7346 12.8481L92.2806 15.9337L89.9664 16.8595L87.8064 14.8541Z" fill="#4C2A1E"/>
<path d="M82.9123 16.519C84.5565 16.4341 86.26 16.1794 87.6994 15.3291C88.8623 14.6421 89.6949 13.5829 90.2886 12.3862C90.7031 11.551 91.1155 10.7335 91.6362 9.95726C92.1539 9.1856 92.742 8.45901 93.3979 7.8004C93.9693 7.22667 94.6012 6.70593 95.311 6.31221C95.6027 6.15032 95.9078 6.0159 96.2286 5.92349C96.3864 5.87803 96.4756 5.86083 96.6175 5.84193C96.6534 5.83712 96.6894 5.83368 96.7254 5.83024C96.843 5.81914 96.6484 5.83232 96.7654 5.82738C96.8006 5.82595 96.8359 5.82589 96.8711 5.82589C96.8944 5.82602 96.9177 5.82654 96.941 5.82732C96.8864 5.82368 96.8836 5.82355 96.9325 5.82706C96.9668 5.82959 97.0011 5.83355 97.0353 5.83758C97.1503 5.85108 96.9458 5.81998 97.0594 5.8405C97.0931 5.84654 97.1263 5.8542 97.1596 5.86186C97.1712 5.86459 97.2796 5.89596 97.1923 5.86985C97.357 5.91914 97.4013 5.94258 97.5508 6.02869C97.7648 6.15207 97.9765 6.33884 98.1634 6.51456C98.4922 6.82354 98.7613 7.18842 98.9422 7.60585C99.2844 8.39524 99.1847 9.27502 98.8694 10.0555C98.4789 11.0215 97.7678 11.852 97.0215 12.563C96.0927 13.448 95.0247 14.1803 93.9081 14.8068C92.6819 15.4948 91.3809 16.0485 90.0374 16.4618C89.3709 16.6668 88.6743 16.8409 88.002 16.9637C87.6552 17.027 87.3062 17.0783 86.9561 17.1192C86.6213 17.1584 86.2606 17.1868 85.9787 17.1991C85.6785 17.2122 85.3779 17.2142 85.0775 17.207C85.0099 17.2054 84.9424 17.2029 84.8748 17.2002C84.8345 17.1986 84.7942 17.1965 84.7538 17.1946C84.8458 17.1992 84.713 17.1918 84.7054 17.1914C84.5455 17.1812 84.386 17.167 84.2268 17.1502C84.082 17.135 83.9379 17.1161 83.7939 17.0951C83.7679 17.0913 83.7419 17.0873 83.7159 17.0833C83.5871 17.0635 83.8001 17.0979 83.6717 17.0761C83.5944 17.0631 83.5172 17.0487 83.4403 17.0338C83.3 17.0067 83.1605 16.9758 83.0216 16.9426C82.9463 16.9246 82.8714 16.9052 82.7965 16.8853C82.7934 16.8845 82.671 16.8507 82.7464 16.8721C82.7094 16.8616 82.6725 16.8507 82.6356 16.8397C82.4593 16.7871 82.2256 16.7451 82.0533 16.837C81.8873 16.9255 82.0807 17.0545 82.179 17.0837C84.9246 17.901 87.901 17.5908 90.6064 16.7651C93.1918 15.976 95.7249 14.6836 97.7193 12.8391C99.0494 11.6088 100.493 9.71361 99.8364 7.79345C99.6875 7.35804 99.4261 6.97608 99.1187 6.63755C98.7343 6.21441 98.256 5.83901 97.7139 5.64705C96.2831 5.14027 94.7981 5.81888 93.667 6.68158C92.2167 7.78774 91.0605 9.2808 90.1676 10.8605C89.7698 11.5641 89.4712 12.3181 89.0458 13.0062C88.7034 13.5597 88.2884 14.0671 87.799 14.497C86.4153 15.7126 84.5102 16.078 82.7244 16.1701C82.6558 16.1736 82.3258 16.1922 82.4078 16.3449C82.4858 16.4899 82.7703 16.5262 82.9123 16.519Z" fill="black"/>
<path fill-rule="evenodd" clip-rule="evenodd" d="M73.2852 25.7689C74.095 25.6406 74.8674 25.5181 75.7123 25.384C75.588 24.8966 75.4697 24.4325 75.3437 23.9381C74.5422 24.0465 73.7875 24.1486 72.995 24.256C72.9114 23.7053 72.8328 23.1882 72.745 22.6103C75.0494 22.2677 77.3161 21.9308 79.6297 21.5869C79.7133 22.1621 79.7884 22.6795 79.8708 23.2465C78.8983 23.3979 77.9598 23.5442 76.9553 23.7008C77.1373 24.1847 77.3071 24.6363 77.4895 25.1211C78.1209 25.0277 78.7381 24.9368 79.3873 24.8406C79.4485 25.2007 79.5052 25.533 79.5708 25.918C79.0088 26.0078 78.476 26.0928 77.899 26.1847C78.1144 26.7555 78.3222 27.3056 78.5323 27.8621C79.8092 27.7231 81.0417 27.5888 82.3131 27.4504C82.3514 27.8285 82.3833 28.1444 82.4218 28.5245C81.2515 28.656 80.123 28.783 79.0009 28.9092C78.996 28.982 78.9811 29.02 78.9941 29.0414C79.4751 29.8395 79.2667 30.5524 78.8311 31.3149C78.2329 32.3624 77.7374 33.4684 77.1751 34.5947C76.3058 34.1851 75.4651 33.7891 74.5707 33.3676C75.2167 32.5458 75.7918 31.7162 76.4706 30.9824C77.0125 30.3966 77.0382 29.8458 76.6596 29.162C74.9163 29.347 73.1552 29.5336 71.3551 29.7245C71.3194 29.3762 71.2853 29.042 71.2454 28.653C72.9811 28.462 74.6882 28.2738 76.4308 28.0819C76.2849 27.5286 76.1478 27.008 76.002 26.4538C75.4013 26.531 74.8292 26.6031 74.258 26.6786C73.3398 26.8002 73.332 26.7943 73.2852 25.7689Z" fill="black"/>
<path fill-rule="evenodd" clip-rule="evenodd" d="M62.4838 23.4422C62.4838 25.6478 62.4838 27.7929 62.4838 29.9672C62.6558 29.9559 62.836 29.944 63.0677 29.9287C63.1295 30.244 63.1897 30.5501 63.2573 30.8943C61.0502 31.4161 58.8967 31.9255 56.6933 32.4467C56.5965 32.1346 56.5077 31.8487 56.4026 31.5104C56.6679 31.4329 56.9033 31.3283 57.1471 31.3017C57.4948 31.2637 57.6071 31.1147 57.5744 30.7686C57.4422 29.3738 57.3283 27.9768 57.2098 26.5805C57.1305 25.6456 57.0548 24.7102 56.9703 23.6892C57.5549 23.8371 58.119 23.3319 58.6758 23.7984C58.725 23.8397 58.8423 23.8106 58.9259 23.7989C59.7605 23.6818 60.5931 23.5472 61.43 23.4487C61.7784 23.4079 62.1357 23.4422 62.4838 23.4422ZM61.1885 24.6133C60.3559 24.6918 59.5355 24.769 58.6776 24.8498C58.7081 25.238 58.7339 25.5697 58.7593 25.8935C59.5333 25.8935 60.2397 25.8935 60.9604 25.8935C60.993 26.2255 61.0222 26.5247 61.0592 26.9031C60.3136 26.9031 59.622 26.9031 58.8654 26.9031C58.9165 27.4465 58.9604 27.9084 59.0055 28.3886C59.7704 28.3088 60.4566 28.2372 61.1885 28.1608C61.1885 26.9615 61.1885 25.8093 61.1885 24.6133ZM59.2351 30.797C59.6035 30.71 59.9165 30.6353 60.2297 30.5624C61.2034 30.3352 61.2037 30.3354 61.1305 29.3171C61.1294 29.3036 61.1092 29.2914 61.0407 29.2136C60.4426 29.2592 59.7922 29.3088 59.092 29.362C59.1407 29.8496 59.1844 30.2854 59.2351 30.797Z" fill="black"/>
<path fill-rule="evenodd" clip-rule="evenodd" d="M37.8894 33.5526C37.1274 33.3411 36.4432 33.1513 35.7326 32.9542C35.4833 33.4894 35.2478 33.9956 34.9898 34.5497C34.607 34.3845 34.2415 34.2266 33.8216 34.0456C34.0246 33.5563 34.2161 33.0946 34.4311 32.5765C33.5641 32.3329 32.7381 32.1009 31.8624 31.8549C31.9365 31.1094 32.0086 30.3849 32.0875 29.5921C31.2429 29.6392 30.4166 29.6851 29.5193 29.735C29.4916 29.4117 29.4648 29.1007 29.4333 28.7329C30.3666 28.6593 31.262 28.5888 32.225 28.5128C32.3546 27.6107 32.4845 26.7063 32.6231 25.7412C33.2733 25.7906 33.9071 25.8386 34.6045 25.8915C34.41 26.7317 34.2274 27.5206 34.0246 28.3975C34.8012 28.3452 35.5305 28.3473 36.2351 28.2168C36.4417 28.1785 36.5784 27.7636 36.8013 27.4436C37.6298 28.0166 38.5756 28.3045 39.6719 27.9622C39.6719 28.3842 39.6719 28.7141 39.6719 29.0805C39.0313 29.1271 38.3891 29.1871 37.7454 29.2137C37.4934 29.2242 37.3506 29.2943 37.2495 29.54C37.0037 30.1371 36.7242 30.72 36.4409 31.3475C37.0733 31.4696 37.6673 31.5842 38.3228 31.7109C38.1764 32.3328 38.0384 32.9191 37.8894 33.5526ZM35.8809 29.3231C35.4738 29.3563 35.1696 29.3772 34.8662 29.4065C34.5005 29.442 34.012 29.3567 33.8027 29.5583C33.5628 29.7893 33.5699 30.2775 33.473 30.655C33.4657 30.6834 33.4851 30.7188 33.5021 30.7972C33.9464 30.8854 34.4066 30.9897 34.8721 31.059C34.9708 31.0737 35.1462 30.9882 35.1879 30.9017C35.4218 30.4155 35.6256 29.9147 35.8809 29.3231Z" fill="black"/>
<path fill-rule="evenodd" clip-rule="evenodd" d="M68.5216 33.329C67.1908 33.4177 66.6644 33.2779 65.1543 32.4459C65.1678 32.36 65.1737 32.2609 65.2009 32.1679C65.229 32.072 65.2782 31.9821 65.3395 31.8397C65.7812 31.9112 66.2261 31.9833 66.7405 32.0666C66.8768 30.3742 67.0105 28.7152 67.1476 27.0133C66.8017 27.0133 66.5185 27.0133 66.1872 27.0133C65.4415 29.3197 64.6872 31.6521 63.9182 34.0304C63.5093 33.8911 63.1308 33.7621 62.7076 33.618C63.4183 31.4036 64.1197 29.2187 64.8426 26.9668C64.3247 26.9276 63.8404 26.8911 63.3052 26.8506C63.3201 26.52 63.334 26.2077 63.3479 25.8985C63.9751 25.8985 64.5518 25.8985 65.174 25.8985C65.5072 24.8801 65.8505 23.8314 66.2117 22.7275C66.6262 22.8471 67.0102 22.9578 67.4334 23.0798C67.1297 24.0376 66.838 24.9578 66.5258 25.9426C67.3761 25.986 68.1986 26.028 69.0813 26.0732C68.8933 28.5105 68.7087 30.904 68.5216 33.329Z" fill="black"/>
<path fill-rule="evenodd" clip-rule="evenodd" d="M31.388 27.4868C30.7527 27.5623 30.1337 27.636 29.4455 27.7177C29.2421 26.2681 29.0441 24.8572 28.8351 23.3684C29.473 23.268 30.1001 23.1695 30.7482 23.0676C30.8 23.2397 30.843 23.3826 30.9065 23.5931C31.8524 23.5371 32.8049 23.4807 33.8835 23.4169C33.3421 22.9519 32.9064 22.5777 32.4303 22.1688C33.0417 21.8625 33.6184 21.5735 34.2485 21.2578C34.5636 21.8417 34.8793 22.4022 35.1694 22.9755C35.301 23.2356 35.442 23.341 35.7619 23.3071C36.7253 23.2054 37.6935 23.1473 38.6609 23.0921C38.798 23.0844 38.9484 23.1741 39.0806 23.2421C39.4587 23.4361 39.8308 23.642 40.2615 23.8736C39.6774 24.6969 39.1093 25.4976 38.5468 26.2903C37.6831 26.0782 37.6679 26.0492 37.9275 25.2468C38.0164 24.9718 38.0964 24.6934 38.1763 24.4154C38.1846 24.3873 38.165 24.3508 38.1442 24.2504C35.7939 24.3808 33.4341 24.5117 31.0127 24.646C31.1373 25.59 31.2587 26.5083 31.388 27.4868Z" fill="black"/>
<path fill-rule="evenodd" clip-rule="evenodd" d="M46.0851 32.1477C46.2133 31.8621 46.3422 31.5752 46.4863 31.2545C47.0514 31.5124 47.5716 31.7499 48.1824 32.0287C48.0004 29.2598 47.8232 26.5632 47.6418 23.8025C48.3357 23.7545 49.0231 23.7066 49.7834 23.6538C49.9981 26.8288 50.2096 29.9531 50.4201 33.0663C48.7527 33.7186 47.4451 32.8856 46.0851 32.1477Z" fill="black"/>
<path fill-rule="evenodd" clip-rule="evenodd" d="M20.0086 24.9404C20.0695 25.6151 20.1258 26.2398 20.1874 26.9232C19.7645 26.974 19.3547 27.0233 18.9094 27.0769C18.7902 25.8637 18.6753 24.6959 18.5535 23.4573C18.9847 23.4115 19.3803 23.3696 19.8325 23.3216C19.8677 23.5522 19.8976 23.7483 19.9357 23.9978C20.5838 23.9593 21.2378 23.9202 21.9832 23.8759C21.5426 23.3758 21.1559 22.9369 20.7266 22.4497C21.2675 22.2449 21.7525 22.0612 22.2792 21.8618C22.5983 22.5199 22.8977 23.1374 23.2258 23.8141C24.0614 23.7744 25.0031 23.7296 26.032 23.6809C25.8304 24.7336 25.6585 25.6314 25.477 26.5792C25.1447 26.5178 24.8514 26.4635 24.5182 26.402C24.6358 25.8366 24.7457 25.3075 24.8703 24.7077C23.2449 24.7855 21.6673 24.8609 20.0086 24.9404Z" fill="black"/>
<path fill-rule="evenodd" clip-rule="evenodd" d="M20.0533 34.0644C19.6499 33.8479 19.3079 33.6643 18.9132 33.4525C19.5328 32.1601 20.1404 30.8927 20.7919 29.5338C20.3026 29.5591 19.8931 29.5804 19.4401 29.6037C19.4206 29.3131 19.4026 29.0476 19.3806 28.7193C21.3259 28.5373 23.238 28.3583 25.2008 28.1748C25.2008 28.496 25.2008 28.7757 25.2008 29.1367C24.4465 29.1998 23.657 29.2853 22.8651 29.3235C22.4822 29.3419 22.2572 29.4575 22.0861 29.8287C21.4379 31.2359 20.7489 32.6239 20.0533 34.0644Z" fill="black"/>
<path fill-rule="evenodd" clip-rule="evenodd" d="M24.0928 32.5353C24.9204 32.4051 25.6696 32.2871 26.4698 32.1611C26.5624 32.6699 26.6468 33.1329 26.753 33.716C25.4872 33.716 24.2737 33.716 22.9689 33.716C22.9689 32.5282 22.9689 31.2713 22.9689 29.9795C23.4053 29.9795 23.9039 29.9795 24.4625 29.9795C24.3391 30.8322 24.2227 31.6373 24.0928 32.5353Z" fill="black"/>
<path fill-rule="evenodd" clip-rule="evenodd" d="M46.2771 26.7142C45.5539 28.1598 44.8478 29.5707 44.1229 31.0195C43.6872 30.8022 43.297 30.6075 42.8536 30.3864C43.5639 28.9529 44.2625 27.5429 44.9805 26.0938C45.4334 26.3105 45.8405 26.5053 46.2771 26.7142Z" fill="black"/>
<path fill-rule="evenodd" clip-rule="evenodd" d="M50.5028 27.949C50.6707 27.5095 50.8207 27.1166 50.9926 26.6665C52.1511 27.1635 53.2802 27.6482 54.4497 28.1501C54.2516 28.5674 54.0718 28.9458 53.8661 29.379C52.7452 28.9023 51.6581 28.4401 50.5028 27.949Z" fill="black"/>
<path fill-rule="evenodd" clip-rule="evenodd" d="M17.1925 29.6069C17.4885 29.772 17.7528 29.9194 18.054 30.0872C17.3031 31.3068 16.5658 32.5044 15.7932 33.7592C15.5425 33.6042 15.3074 33.4588 15.0076 33.2737C15.7403 32.044 16.4578 30.84 17.1925 29.6069Z" fill="black"/>
<path fill-rule="evenodd" clip-rule="evenodd" d="M15.0455 23.8085C15.4894 23.3395 15.8745 22.9326 16.3038 22.479C16.7872 23.0426 17.251 23.5831 17.7148 24.124C17.7533 24.0867 17.7919 24.0494 17.8305 24.0122C17.821 24.0418 17.8202 24.0804 17.8006 24.0997C17.055 24.831 17.0547 24.8309 16.1456 24.3688C15.7999 24.1929 15.4544 24.0169 15.0455 23.8085Z" fill="black"/>
<path fill-rule="evenodd" clip-rule="evenodd" d="M14.9957 26.2803C15.6684 26.679 16.2921 27.0486 16.9348 27.4296C16.7376 27.779 16.5562 28.1004 16.3536 28.4596C15.6436 28.1692 14.9614 27.8902 14.2321 27.5918C14.493 27.1436 14.7277 26.7405 14.9957 26.2803Z" fill="black"/>
<path fill-rule="evenodd" clip-rule="evenodd" d="M20.6793 27.1529C20.6793 26.8619 20.6793 26.5958 20.6793 26.292C21.7181 26.292 22.747 26.292 23.7987 26.292C23.7987 26.5789 23.7987 26.8465 23.7987 27.1529C22.7633 27.1529 21.7349 27.1529 20.6793 27.1529Z" fill="black"/>
</svg>
